<svg version="1.1" id="Layer_1" xmlns="http://www.w3.org/2000/svg" xmlns:xlink="http://www.w3.org/1999/xlink" x="0px" y="0px"
	 width="100%" viewBox="0 0 256 256" enable-background="new 0 0 256 256" xml:space="preserve">
<path fill="#FEFEFE" opacity="1.000000" stroke="none" 
	d="
M136.000000,257.000000 
	C90.666672,257.000000 45.833340,257.000000 1.000006,257.000000 
	C1.000004,171.666672 1.000004,86.333351 1.000002,1.000018 
	C86.333321,1.000012 171.666641,1.000012 257.000000,1.000006 
	C257.000000,86.333313 257.000000,171.666626 257.000000,256.999969 
	C216.833328,257.000000 176.666672,257.000000 136.000000,257.000000 
M124.705841,223.773346 
	C125.462837,223.711411 126.219833,223.649475 127.789406,223.789474 
	C129.175705,223.710464 130.562012,223.631454 132.748978,223.751587 
	C135.165466,223.498413 137.581940,223.245239 140.826263,223.055222 
	C142.203918,222.983139 143.581573,222.911072 145.804825,222.933228 
	C148.572632,222.440704 151.340439,221.948181 154.490051,221.343689 
	C154.490051,221.343689 154.856720,221.189163 155.739456,221.267822 
	C158.164658,221.007401 160.589859,220.746979 163.802292,220.417313 
	C165.545898,220.122894 167.289505,219.828476 169.801682,219.438614 
	C171.520966,219.035324 173.240250,218.632019 175.798264,218.210449 
	C178.873337,217.492538 181.948395,216.774628 185.739059,216.075729 
	C187.520920,215.542450 189.302795,215.009155 191.825424,214.409363 
	C193.215332,213.976028 194.605225,213.542694 196.688446,213.142029 
	C198.166702,212.671753 199.644943,212.201477 201.923798,211.641479 
	C203.956680,210.978104 205.989563,210.314743 208.728653,209.593399 
	C212.815674,208.051559 216.902679,206.509720 221.734055,204.905914 
	C227.530197,202.543381 233.403137,200.344955 239.064621,197.694763 
	C240.364349,197.086365 241.890945,194.767822 241.682983,193.504715 
	C240.659317,187.287796 239.086670,181.161255 237.785858,174.235107 
	C236.634048,170.291397 235.482254,166.347702 234.475510,161.898666 
	C234.336746,161.583481 234.197983,161.268311 234.079376,160.192108 
	C233.109985,157.440521 232.140594,154.688934 231.119827,151.155579 
	C225.544754,132.907455 217.170670,115.979118 206.792664,100.028046 
	C188.713791,72.240692 164.432022,50.780579 137.295547,32.272228 
	C128.344788,26.167391 128.308884,26.190290 119.047928,32.263943 
	C117.108368,33.535973 115.271812,34.965088 112.873039,36.613331 
	C111.805000,37.477779 110.736961,38.342228 109.008507,39.483765 
	C106.258087,41.613831 103.507668,43.743900 100.113953,46.051094 
	C97.400177,48.367897 94.686401,50.684700 91.365784,53.164238 
	C90.175690,54.286980 88.985596,55.409721 87.184242,56.790390 
	C85.774307,58.160557 84.364365,59.530720 82.351257,61.127544 
	C81.219894,62.392708 80.088531,63.657871 78.322304,65.139145 
	C76.208298,67.415947 74.094284,69.692757 71.370583,72.229332 
	C69.863609,74.080589 68.356636,75.931854 66.200645,77.981476 
	C62.074921,83.260872 57.949192,88.540268 53.272419,94.218575 
	C50.757530,98.250336 48.242641,102.282104 45.203827,106.811142 
	C43.369743,110.141327 41.535660,113.471519 39.175903,117.253517 
	C37.387482,121.137878 35.599060,125.022247 33.290981,129.334381 
	C32.571362,131.227386 31.851740,133.120377 30.695753,135.587112 
	C29.649822,138.339005 28.603893,141.090912 27.097496,144.401199 
	C26.276566,147.218964 25.455637,150.036743 24.150957,153.343658 
	C23.783470,154.903580 23.415981,156.463516 22.630156,158.572311 
	C20.374205,167.651123 17.885775,176.679916 15.919417,185.821014 
	C13.287310,198.057053 13.460825,198.094910 25.500755,201.936142 
	C25.651514,201.984253 25.830355,201.944336 26.246847,202.217773 
	C26.246847,202.217773 26.616259,202.241104 27.098345,202.759445 
	C29.086435,203.479385 31.074528,204.199326 33.536564,205.415482 
	C41.014538,207.879929 48.492512,210.344391 56.661304,213.165039 
	C61.733433,214.413681 66.805565,215.662308 72.448997,217.243927 
	C74.471466,217.611816 76.493942,217.979706 79.137833,218.788773 
	C80.392693,218.936295 81.647545,219.083817 83.523682,219.680466 
	C86.346519,220.071762 89.169350,220.463074 92.697426,221.080338 
	C93.434601,221.122314 94.171768,221.164291 95.554131,221.656952 
	C98.694748,221.962860 101.835373,222.268784 105.829857,222.845367 
	C108.218285,222.879410 110.606705,222.913452 113.856522,223.196579 
	C116.237885,223.226242 118.619255,223.255905 121.489456,223.672272 
	C122.315781,223.637161 123.142113,223.602051 124.705841,223.773346 
z"/>
<path fill="#06AAE5" opacity="1.000000" stroke="none" 
	d="
M234.059219,160.953125 
	C234.197983,161.268311 234.336746,161.583481 234.310425,162.581970 
	C234.398972,164.547546 234.341721,166.009644 234.961090,167.080322 
	C237.390747,171.280319 234.802948,173.552307 231.790070,175.482147 
	C229.644974,176.856140 227.205521,177.770599 224.512360,178.920013 
	C221.711990,179.917038 219.296692,180.884186 216.479645,181.882950 
	C205.484314,184.739975 194.877838,187.519089 184.314133,190.452179 
	C183.059998,190.800385 182.039505,191.990128 180.535995,192.840759 
	C179.155396,192.965622 178.149536,193.039520 176.696350,193.069351 
	C172.804031,193.945007 169.358994,194.864716 165.938919,195.904648 
	C165.963867,196.024872 166.072922,196.244904 165.694565,196.156586 
	C164.543442,196.027756 163.770660,195.987259 162.912109,195.776550 
	C162.561188,195.739822 162.296036,195.873322 162.020966,196.011810 
	C162.011032,196.016815 161.991791,196.027985 161.705444,196.017670 
	C160.957901,196.291794 160.496719,196.576202 159.690536,196.914703 
	C158.880310,196.966934 158.415070,196.965088 157.693146,196.687836 
	C150.626724,197.316360 143.817001,198.220306 136.630783,199.142090 
	C135.249435,199.163834 134.244583,199.167725 132.793564,199.096222 
	C125.836945,199.071442 119.326485,199.122055 112.465393,199.166962 
	C111.413498,199.149307 110.712242,199.137360 109.782135,198.833603 
	C107.712845,198.649658 105.872414,198.757523 103.664322,198.891830 
	C102.563400,198.858185 101.830124,198.798080 100.963867,198.387451 
	C95.578354,197.294876 90.325813,196.552826 84.722992,195.826126 
	C83.235481,195.577591 82.098259,195.313705 80.754776,194.739426 
	C78.015602,193.977097 75.482689,193.525146 72.698036,193.054382 
	C72.282837,192.995453 72.119385,192.955322 71.760208,192.645493 
	C69.565033,191.280014 67.444275,190.351517 65.613396,189.023392 
	C64.578514,188.272675 63.165279,186.643707 63.386490,185.789429 
	C64.777275,180.418518 66.579338,175.154083 68.021667,170.566238 
	C72.563400,171.054001 75.911865,171.413589 79.663422,171.790695 
	C98.574509,175.363617 117.251671,178.372314 136.075089,176.496170 
	C152.726379,174.836517 169.211655,171.511246 186.095428,168.945282 
	C186.967529,168.680695 187.514420,168.392197 188.233856,167.966675 
	C188.651871,167.653259 188.830032,167.424454 189.330307,167.149170 
	C190.498367,167.150543 191.276978,167.145966 192.310822,167.307068 
	C196.059708,166.108902 199.553345,164.745056 203.367432,163.234100 
	C204.807053,162.781677 205.926208,162.476349 207.220612,162.384293 
	C208.271240,162.090805 209.146637,161.584045 210.234299,161.021835 
	C210.446579,160.966385 210.884979,160.947083 211.268539,160.984665 
	C212.388947,160.503769 213.125793,159.985275 213.966736,159.419189 
	C214.070847,159.371582 214.295654,159.414886 214.691040,159.577698 
	C220.121628,158.132233 225.156845,156.523956 229.613968,155.100327 
	C231.398834,157.450348 232.729019,159.201736 234.059219,160.953125 
z"/>
<path fill="#CF1644" opacity="1.000000" stroke="none" 
	d="
M214.295654,159.414886 
	C214.295654,159.414886 214.070847,159.371582 213.613770,159.372437 
	C212.454086,159.483398 211.751465,159.593506 210.829559,159.483337 
	C209.949905,158.515442 209.289536,157.767792 208.695602,156.712494 
	C208.227631,155.826248 207.693237,155.247665 207.169342,154.315933 
	C206.753677,152.645111 206.327515,151.327423 205.898529,149.644379 
	C204.654739,147.064926 203.413757,144.850830 202.180450,142.332001 
	C201.855255,141.320541 201.522415,140.613815 201.164185,139.532532 
	C198.764267,134.766525 196.389755,130.375061 193.928116,125.713516 
	C193.364319,124.867943 192.887650,124.292458 192.342392,123.379997 
	C191.273529,121.320038 190.273239,119.597054 189.210602,117.516220 
	C187.806702,115.078583 186.465134,112.998802 185.077545,110.580925 
	C183.700470,108.474464 182.369400,106.706100 180.941406,104.629021 
	C179.623764,102.857895 178.403046,101.395477 177.150726,99.589539 
	C175.857849,97.807365 174.596573,96.368706 173.198608,94.601471 
	C170.830383,91.872429 168.598846,89.471962 166.381317,86.706749 
	C165.105667,84.819618 163.815979,83.297241 162.320374,81.502487 
	C161.636475,80.483009 161.158508,79.735901 160.606171,78.684654 
	C158.684784,76.653374 156.837769,74.926216 154.778732,72.934319 
	C152.405563,70.744141 150.244400,68.818710 148.060608,66.915298 
	C148.037994,66.937325 148.092407,66.966293 148.037323,66.731705 
	C147.982224,66.497124 147.724823,66.089691 147.652191,65.787277 
	C146.412796,64.579086 145.246002,63.673298 143.922089,62.484947 
	C142.524399,61.423519 141.283829,60.644646 139.956390,59.649345 
	C139.671829,59.174290 139.414261,59.008850 138.967926,58.622513 
	C135.896378,56.194668 132.953720,54.080910 129.962173,51.641823 
	C128.598846,50.181957 127.284416,49.047428 125.753944,47.670494 
	C124.051918,46.582237 122.565926,45.736389 121.052185,44.918339 
	C121.024422,44.946133 121.099213,44.970188 121.095215,44.679527 
	C120.731857,43.984608 120.372490,43.580353 119.776001,42.972446 
	C118.691406,42.193390 117.843925,41.617985 116.694031,40.940990 
	C115.975929,40.748875 115.560234,40.658340 115.071518,40.192657 
	C114.461578,38.652279 113.924683,37.487049 113.387787,36.321819 
	C115.271812,34.965088 117.108368,33.535973 119.047928,32.263943 
	C128.308884,26.190290 128.344788,26.167391 137.295547,32.272228 
	C164.432022,50.780579 188.713791,72.240692 206.792664,100.028046 
	C217.170670,115.979118 225.544754,132.907455 230.794495,151.677917 
	C225.077988,154.605133 219.686813,157.010010 214.295654,159.414886 
z"/>
<path fill="#B2B7BC" opacity="1.000000" stroke="none" 
	d="
M53.823463,93.819664 
	C57.949192,88.540268 62.074921,83.260872 66.576523,78.339951 
	C67.010422,89.205605 67.068459,99.712791 67.101456,110.568573 
	C64.401634,116.618370 61.726852,122.319572 58.984367,128.204483 
	C58.916664,128.388199 58.851772,128.774368 58.529999,128.862930 
	C57.220024,129.461960 56.231819,129.972427 55.176327,130.008820 
	C55.072701,122.121445 55.166138,114.704369 54.951729,107.296204 
	C54.821514,102.796906 54.215652,98.311378 53.823463,93.819664 
z"/>
<path fill="#434753" opacity="1.000000" stroke="none" 
	d="
M237.707825,175.002792 
	C239.086670,181.161255 240.659317,187.287796 241.682983,193.504715 
	C241.890945,194.767822 240.364349,197.086365 239.064621,197.694763 
	C233.403137,200.344955 227.530197,202.543381 221.236740,204.664108 
	C220.157578,203.614853 219.575729,202.807419 219.035919,201.631042 
	C220.063217,197.080887 221.048477,192.899658 222.259644,187.759750 
	C220.846527,187.557861 218.926315,187.283508 217.003983,186.634003 
	C217.009949,185.508621 217.018021,184.758392 217.428421,184.005310 
	C220.160889,182.943863 222.491028,181.885284 224.893524,180.899887 
	C224.965881,180.973053 224.844254,180.807068 225.216064,180.867554 
	C227.060425,180.031036 228.533005,179.134018 230.242554,178.141602 
	C230.647263,178.016693 230.814987,177.987167 231.269501,177.960449 
	C232.023666,177.686600 232.491028,177.409927 233.258728,177.043884 
	C233.974457,176.924713 234.389832,176.894928 235.131378,176.894196 
	C235.960098,176.584076 236.462662,176.244919 237.051971,175.728729 
	C237.317337,175.357239 237.507050,175.174271 237.707825,175.002792 
z"/>
<path fill="#81868B" opacity="1.000000" stroke="none" 
	d="
M39.701580,116.801704 
	C41.535660,113.471519 43.369743,110.141327 45.617847,106.961143 
	C46.966873,110.070984 48.653446,113.020279 48.695114,115.992638 
	C48.817162,124.699890 48.238739,133.415436 48.070877,142.130356 
	C48.051796,143.120895 48.897774,144.128067 49.259239,145.519226 
	C48.774261,147.660843 48.439594,149.429489 47.956734,151.156693 
	C47.036633,154.447876 46.031944,157.715424 44.994232,161.333191 
	C44.881294,162.360718 44.836502,163.047836 44.475166,163.862122 
	C43.453823,165.347672 42.749027,166.706024 41.977634,167.646210 
	C41.608131,165.780685 41.049801,164.334686 41.042141,162.885757 
	C40.971516,149.530365 41.049656,136.173996 40.935482,122.819183 
	C40.918304,120.809990 40.132065,118.807365 39.701580,116.801704 
z"/>
<path fill="#414850" opacity="1.000000" stroke="none" 
	d="
M71.955940,192.915207 
	C72.119385,192.955322 72.282837,192.995453 72.826309,193.278229 
	C73.479424,193.733002 73.752525,193.945084 74.020126,194.480850 
	C74.343086,195.537888 74.671547,196.271240 75.041977,197.325256 
	C75.725845,198.093018 76.367760,198.540100 77.343094,198.993195 
	C78.305008,199.362091 78.933495,199.724991 79.561974,200.087891 
	C79.042435,200.393768 78.522896,200.699631 77.626442,201.007751 
	C73.875275,201.663422 72.002876,203.552399 72.020073,207.143311 
	C72.035667,210.398880 71.929939,213.655045 71.877701,216.910950 
	C66.805565,215.662308 61.733433,214.413681 56.399067,212.610489 
	C57.750237,204.835342 59.363647,197.614746 61.351986,190.568298 
	C65.136589,191.466690 68.546265,192.190948 71.955940,192.915207 
z"/>
<path fill="#5C6169" opacity="1.000000" stroke="none" 
	d="
M27.557962,143.842804 
	C28.603893,141.090912 29.649822,138.339005 31.288271,135.395187 
	C32.253101,136.696396 32.903427,138.181564 32.946487,139.684128 
	C33.085049,144.519608 32.862099,149.368057 33.091938,154.196579 
	C33.153591,155.491821 34.331783,156.733917 34.998337,158.375275 
	C35.001091,159.499893 35.002926,160.249649 34.652069,161.054245 
	C33.665722,162.318771 32.251987,163.744766 32.518230,164.704895 
	C35.399715,175.096405 33.200573,185.703781 34.086113,196.574554 
	C33.737110,199.632660 33.399864,202.275970 33.062618,204.919266 
	C31.074528,204.199326 29.086435,203.479385 27.234131,202.293823 
	C27.913450,200.534714 28.914976,199.246140 28.928854,197.946991 
	C29.052109,186.409958 29.055079,174.870407 28.914003,163.333786 
	C28.900299,162.212997 27.677687,161.106979 27.013348,159.663513 
	C27.010473,158.892029 27.010492,158.451126 27.343533,157.957550 
	C27.454830,156.932953 27.233103,155.961044 27.012392,154.657501 
	C27.017859,153.883743 27.022312,153.441589 27.345488,152.857239 
	C30.277332,150.378922 30.221903,145.750397 27.557962,143.842804 
z"/>
<path fill="#979CA1" opacity="1.000000" stroke="none" 
	d="
M49.342632,145.127533 
	C48.897774,144.128067 48.051796,143.120895 48.070877,142.130356 
	C48.238739,133.415436 48.817162,124.699890 48.695114,115.992638 
	C48.653446,113.020279 46.966873,110.070984 45.879810,106.712509 
	C48.242641,102.282104 50.757530,98.250336 53.547943,94.019119 
	C54.215652,98.311378 54.821514,102.796906 54.951729,107.296204 
	C55.166138,114.704369 55.072701,122.121445 55.156738,130.367126 
	C53.922764,135.160294 52.641087,139.121078 51.278160,143.398712 
	C51.163189,144.149628 51.129459,144.583679 50.800735,145.025421 
	C50.118034,145.064606 49.730335,145.096069 49.342632,145.127533 
z"/>
<path fill="#70747C" opacity="1.000000" stroke="none" 
	d="
M35.004761,160.999390 
	C35.002926,160.249649 35.001091,159.499893 35.165592,158.048752 
	C35.686123,155.245361 36.233311,153.153442 36.343704,151.038727 
	C36.470264,148.614273 36.041676,146.162003 36.151512,143.735260 
	C36.383293,138.614349 38.119358,133.298386 33.810638,128.906616 
	C35.599060,125.022247 37.387482,121.137878 39.438744,117.027611 
	C40.132065,118.807365 40.918304,120.809990 40.935482,122.819183 
	C41.049656,136.173996 40.971516,149.530365 41.042141,162.885757 
	C41.049801,164.334686 41.608131,165.780685 41.944969,168.026596 
	C40.933544,172.558762 39.888191,176.292358 38.533451,180.169662 
	C37.490284,179.843399 36.093685,179.316833 36.128223,178.912537 
	C36.389954,175.848801 36.221920,172.446960 37.548752,169.844330 
	C39.684124,165.655670 37.765804,163.385452 35.004761,160.999390 
M39.483799,124.589912 
	C39.483799,124.589912 39.418026,124.478294 39.483799,124.589912 
z"/>
<path fill="#474A54" opacity="1.000000" stroke="none" 
	d="
M25.996090,201.945511 
	C25.830355,201.944336 25.651514,201.984253 25.500755,201.936142 
	C13.460825,198.094910 13.287310,198.057053 15.919417,185.821014 
	C17.885775,176.679916 20.374205,167.651123 23.094097,158.510834 
	C23.660505,163.925400 23.910099,169.403702 23.827461,174.876953 
	C23.728533,181.429031 23.198835,187.977356 23.223133,194.525940 
	C23.227446,195.688477 25.024868,196.844391 25.995331,198.397583 
	C25.996279,199.843048 25.996185,200.894272 25.996090,201.945511 
z"/>
<path fill="#474B4F" opacity="1.000000" stroke="none" 
	d="
M91.972626,53.001495 
	C94.686401,50.684700 97.400177,48.367897 100.764961,46.120255 
	C102.534286,47.884148 104.877777,49.873260 104.553833,51.221466 
	C103.307289,56.409512 105.741882,59.757915 108.995544,63.303215 
	C108.986061,64.006226 108.978882,64.407555 108.713448,65.020905 
	C106.608597,67.129852 104.762001,69.026756 102.944077,70.964195 
	C102.972740,71.004723 102.942261,70.910439 102.697098,70.999954 
	C102.269684,71.376419 102.087425,71.663361 101.949928,71.959824 
	C101.994682,71.969330 101.927650,71.907036 101.654350,72.020889 
	C100.889198,72.733047 100.397346,73.331360 99.949799,73.960075 
	C99.994095,73.990479 99.927582,73.906075 99.612808,74.027199 
	C96.529320,76.211243 93.760597,78.274170 91.003708,80.232689 
	C91.015541,80.128281 90.981560,79.920906 91.024414,79.594452 
	C92.370964,77.836327 93.674652,76.404655 95.304916,74.810539 
	C99.324745,70.195442 96.150322,65.081490 97.012733,60.360531 
	C97.538467,57.482544 96.638130,55.345524 93.824860,53.754604 
	C93.093323,53.338314 92.532974,53.169903 91.972626,53.001495 
z"/>
<path fill="#B7C64F" opacity="1.000000" stroke="none" 
	d="
M38.842834,180.025970 
	C39.888191,176.292358 40.933544,172.558762 42.011566,168.444763 
	C42.749027,166.706024 43.453823,165.347672 44.544586,164.285767 
	C44.082542,169.184189 43.234531,173.786148 42.071529,180.097488 
	C39.459492,182.861526 34.377338,203.253143 37.313099,204.883942 
	C38.235355,204.573563 39.394161,204.183578 40.552967,203.793579 
	C40.408222,204.284592 40.263477,204.775604 40.118736,205.266617 
	C43.340565,206.581970 46.574375,207.868896 49.781002,209.220322 
	C53.286640,210.697784 55.547207,209.398605 55.968384,205.565536 
	C56.202320,203.436493 56.180244,201.263107 56.594444,199.173309 
	C57.632862,193.934021 59.010876,188.759247 59.957993,183.505463 
	C60.913021,178.207779 60.860798,172.565094 66.117706,169.572510 
	C64.368797,176.765808 62.672932,183.579971 60.977058,190.394150 
	C59.363647,197.614746 57.750237,204.835342 56.053658,212.432388 
	C48.492512,210.344391 41.014538,207.879929 33.299591,205.167374 
	C33.399864,202.275970 33.737110,199.632660 34.382332,196.346970 
	C36.074482,190.478378 37.458656,185.252167 38.842834,180.025970 
z"/>
<path fill="#B7BFC6" opacity="1.000000" stroke="none" 
	d="
M154.108246,221.455658 
	C151.340439,221.948181 148.572632,222.440704 145.310516,222.522766 
	C144.211411,220.308746 143.083694,218.500717 143.099106,216.702499 
	C143.146927,211.130798 143.629547,205.562820 144.195892,199.689957 
	C147.304169,199.032013 150.159958,198.677521 152.827057,198.624664 
	C153.128342,206.436111 153.618286,213.945877 154.108246,221.455658 
z"/>
<path fill="#505A64" opacity="1.000000" stroke="none" 
	d="
M218.993896,201.999969 
	C219.575729,202.807419 220.157578,203.614853 220.864563,204.695099 
	C216.902679,206.509720 212.815674,208.051559 208.372589,209.178223 
	C208.022018,204.151962 208.137680,199.536987 207.975189,194.931824 
	C207.915726,193.246613 207.196396,191.584702 206.598862,189.195526 
	C206.884354,188.795258 207.914459,187.351028 209.182907,185.654800 
	C211.237808,184.923203 213.054352,184.443604 215.231171,183.975357 
	C216.069656,183.993866 216.547882,184.001022 217.026093,184.008163 
	C217.018021,184.758392 217.009949,185.508621 216.999527,187.099060 
	C216.997482,191.368668 216.818100,194.812393 217.089462,198.220215 
	C217.193146,199.522430 218.328629,200.742477 218.993896,201.999969 
z"/>
<path fill="#7F8991" opacity="1.000000" stroke="none" 
	d="
M177.143661,193.113403 
	C178.149536,193.039520 179.155396,192.965622 180.879578,192.931091 
	C182.067139,193.021881 182.536407,193.073303 183.056213,193.492340 
	C183.490829,196.462021 184.437836,199.130783 184.139206,201.651993 
	C183.557465,206.563400 182.949844,211.356491 185.023468,216.056717 
	C181.948395,216.774628 178.873337,217.492538 175.433594,217.787582 
	C175.498093,212.099014 176.794540,206.686493 175.939819,201.638153 
	C175.585953,199.548080 174.084824,197.538315 175.349060,195.010529 
	C176.147873,194.319092 176.645767,193.716248 177.143661,193.113403 
z"/>
<path fill="#9DA1A6" opacity="1.000000" stroke="none" 
	d="
M67.126495,110.219971 
	C67.068459,99.712791 67.010422,89.205605 66.901031,78.240768 
	C68.356636,75.931854 69.863609,74.080589 71.842102,72.469627 
	C72.907005,81.900337 73.500397,91.090744 74.092644,100.437157 
	C74.091499,100.593155 74.023491,100.903885 73.790276,101.046631 
	C73.371002,101.496239 73.184937,101.803085 72.876434,102.431763 
	C70.878166,105.242386 69.002327,107.731178 67.126495,110.219971 
z"/>
<path fill="#757D87" opacity="1.000000" stroke="none" 
	d="
M110.010986,199.125412 
	C110.712242,199.137360 111.413498,199.149307 112.514053,199.448181 
	C112.957367,200.113892 113.001389,200.492661 113.031708,201.308350 
	C113.010384,208.812683 113.002754,215.880096 112.995132,222.947495 
	C110.606705,222.913452 108.218285,222.879410 105.392670,222.395447 
	C104.881332,220.684845 104.731491,219.423294 104.745880,218.163635 
	C104.815414,212.074905 106.132500,206.004929 105.390549,199.893555 
	C107.184448,199.634537 108.597717,199.379974 110.010986,199.125412 
z"/>
<path fill="#A3ADB5" opacity="1.000000" stroke="none" 
	d="
M133.239731,199.171616 
	C134.244583,199.167725 135.249435,199.163834 136.883743,199.359177 
	C138.625671,199.664963 139.738159,199.771515 140.885452,200.306625 
	C140.612991,208.154144 140.305710,215.573120 139.998428,222.992065 
	C137.581940,223.245239 135.165466,223.498413 132.380295,223.268204 
	C132.466644,215.755981 132.921661,208.727127 133.405716,201.249985 
	C130.651672,201.128143 128.875961,201.049591 127.072037,200.812622 
	C127.043839,200.654190 127.012939,200.333694 127.413284,200.246918 
	C129.622330,199.830643 131.431030,199.501129 133.239731,199.171616 
z"/>
<path fill="#6C717B" opacity="1.000000" stroke="none" 
	d="
M105.009911,199.898026 
	C106.132500,206.004929 104.815414,212.074905 104.745880,218.163635 
	C104.731491,219.423294 104.881332,220.684845 104.965744,222.260101 
	C101.835373,222.268784 98.694748,221.962860 95.427521,221.119278 
	C96.183029,218.692078 97.779121,216.814407 97.810707,214.910767 
	C97.898392,209.626129 97.335144,204.330688 97.436333,199.017731 
	C98.928009,198.909958 100.012428,198.823959 101.096848,198.737976 
	C101.830124,198.798080 102.563400,198.858185 103.757828,199.121323 
	C104.429535,199.588776 104.693184,199.779999 105.009911,199.898026 
z"/>
<path fill="#888E94" opacity="1.000000" stroke="none" 
	d="
M74.093788,100.281158 
	C73.500397,91.090744 72.907005,81.900337 72.146942,72.339737 
	C74.094284,69.692757 76.208298,67.415947 78.793732,65.388588 
	C79.460556,66.260780 79.873840,66.903519 79.818840,67.503304 
	C78.916389,77.343887 77.954865,87.179039 77.003845,97.006821 
	C77.001060,96.998222 77.016037,96.999161 76.769867,97.155762 
	C76.341393,97.852264 76.159096,98.392166 75.835571,99.200493 
	C75.160835,99.739662 74.627312,100.010406 74.093788,100.281158 
z"/>
<path fill="#575E68" opacity="1.000000" stroke="none" 
	d="
M91.992188,220.854370 
	C89.169350,220.463074 86.346519,220.071762 83.380798,219.059189 
	C83.916679,214.200119 84.595444,209.962326 85.351173,205.244019 
	C81.326607,203.578125 86.037804,199.790970 85.468887,196.862091 
	C87.226944,197.259155 88.625221,197.638367 90.071960,198.360840 
	C91.337982,199.656738 92.555527,200.609360 93.769638,201.559296 
	C92.788750,202.973358 91.283958,204.144089 91.283936,205.314865 
	C91.283844,210.494705 91.716293,215.674530 91.992188,220.854370 
z"/>
<path fill="#6A7074" opacity="1.000000" stroke="none" 
	d="
M82.954422,60.900887 
	C84.364365,59.530720 85.774307,58.160557 87.528084,57.042572 
	C88.031479,60.040730 88.513184,62.815491 88.270981,65.525558 
	C87.950928,69.106720 86.897079,72.571190 89.703934,75.783051 
	C90.571770,76.776108 90.579842,78.520508 90.981560,79.920906 
	C90.981560,79.920906 91.015541,80.128281 90.894745,80.531097 
	C90.133026,82.586639 89.492111,84.239349 88.892883,85.867935 
	C88.934570,85.843819 88.838249,85.842499 88.485092,85.855530 
	C87.360748,86.849945 86.589561,87.831337 85.820648,88.836884 
	C85.822922,88.861046 85.870682,88.869659 85.628723,88.950836 
	C85.215263,89.315025 85.043755,89.598045 84.871368,89.855164 
	C84.870491,89.829269 84.818779,89.826035 84.514786,89.850754 
	C83.808357,89.944710 83.405930,90.013962 82.762177,89.874969 
	C83.234375,87.959099 84.614464,86.224968 84.547806,84.548363 
	C84.234062,76.657227 83.523430,68.781868 82.954422,60.900887 
z"/>
<path fill="#737C86" opacity="1.000000" stroke="none" 
	d="
M185.381256,216.066223 
	C182.949844,211.356491 183.557465,206.563400 184.139206,201.651993 
	C184.437836,199.130783 183.490829,196.462021 183.419830,193.399506 
	C186.154144,192.322571 188.575378,191.706070 190.986389,191.506531 
	C191.189346,198.481567 191.427658,205.039062 191.587952,211.598450 
	C191.611298,212.552917 191.261703,213.516510 191.084671,214.475861 
	C189.302795,215.009155 187.520920,215.542450 185.381256,216.066223 
z"/>
<path fill="#8D959F" opacity="1.000000" stroke="none" 
	d="
M175.048111,195.099121 
	C174.084824,197.538315 175.585953,199.548080 175.939819,201.638153 
	C176.794540,206.686493 175.498093,212.099014 175.014236,217.796722 
	C173.240250,218.632019 171.520966,219.035324 169.414520,218.968170 
	C169.022491,211.327515 169.017639,204.157272 169.234207,196.879898 
	C169.728210,196.571289 169.925110,196.312286 170.373337,195.826202 
	C172.149597,195.470840 173.598846,195.284973 175.048111,195.099121 
z"/>
<path fill="#5A616E" opacity="1.000000" stroke="none" 
	d="
M208.944565,185.906830 
	C207.914459,187.351028 206.884354,188.795258 206.598862,189.195526 
	C207.196396,191.584702 207.915726,193.246613 207.975189,194.931824 
	C208.137680,199.536987 208.022018,204.151962 208.019485,209.207214 
	C205.989563,210.314743 203.956680,210.978104 201.501419,211.209366 
	C201.310333,203.384949 201.541626,195.992645 201.920898,188.294083 
	C204.360794,187.294159 206.652679,186.600494 208.944565,185.906830 
z"/>
<path fill="#4F535E" opacity="1.000000" stroke="none" 
	d="
M108.997864,63.001526 
	C105.741882,59.757915 103.307289,56.409512 104.553833,51.221466 
	C104.877777,49.873260 102.534286,47.884148 101.086609,46.031689 
	C103.507668,43.743900 106.258087,41.613831 109.488693,39.746254 
	C109.858841,42.116127 109.748810,44.223507 109.629181,46.514824 
	C109.572350,46.514824 110.483437,46.514824 111.010124,46.514824 
	C111.010124,51.392517 111.010124,56.198349 111.009422,61.337574 
	C111.013588,62.115555 111.018456,62.560139 110.685448,63.002693 
	C109.897667,63.000950 109.447769,63.001240 108.997864,63.001526 
z"/>
<path fill="#646B77" opacity="1.000000" stroke="none" 
	d="
M201.772919,188.600342 
	C201.541626,195.992645 201.310333,203.384949 201.101120,211.254211 
	C199.644943,212.201477 198.166702,212.671753 196.342285,212.648926 
	C195.997574,208.727600 196.136032,205.292542 195.964600,201.873001 
	C195.765320,197.898041 195.294403,193.936676 195.227325,189.703690 
	C197.599808,189.158752 199.686356,188.879547 201.772919,188.600342 
z"/>
<path fill="#797F83" opacity="1.000000" stroke="none" 
	d="
M82.652840,61.014214 
	C83.523430,68.781868 84.234062,76.657227 84.547806,84.548363 
	C84.614464,86.224968 83.234375,87.959099 82.624336,90.181145 
	C82.111259,92.104950 81.494682,93.514343 80.931999,94.918228 
	C80.985886,94.912720 80.883179,94.878250 80.565582,94.921234 
	C79.167534,95.647957 78.087074,96.331680 77.006622,97.015411 
	C77.954865,87.179039 78.916389,77.343887 79.818840,67.503304 
	C79.873840,66.903519 79.460556,66.260780 79.111160,65.280533 
	C80.088531,63.657871 81.219894,62.392708 82.652840,61.014214 
z"/>
<path fill="#4C5663" opacity="1.000000" stroke="none" 
	d="
M85.109108,196.844254 
	C86.037804,199.790970 81.326607,203.578125 85.351173,205.244019 
	C84.595444,209.962326 83.916679,214.200119 83.070160,218.834625 
	C81.647545,219.083817 80.392693,218.936295 79.177887,218.294556 
	C79.478310,216.541779 80.079399,215.243408 79.937813,214.031799 
	C79.428551,209.673859 78.668587,205.345215 78.003357,201.005493 
	C78.522896,200.699631 79.042435,200.393768 79.561974,200.087891 
	C78.933495,199.724991 78.305008,199.362091 77.299271,198.673859 
	C76.281349,197.900543 75.640678,197.452560 75.000015,197.004593 
	C74.671547,196.271240 74.343086,195.537888 74.405029,194.470673 
	C76.850639,194.441147 78.905846,194.745483 80.961044,195.049820 
	C82.098259,195.313705 83.235481,195.577591 84.717262,196.085449 
	C85.077583,196.501007 85.093346,196.672623 85.109108,196.844254 
z"/>
<path fill="#5D6772" opacity="1.000000" stroke="none" 
	d="
M92.344803,220.967346 
	C91.716293,215.674530 91.283844,210.494705 91.283936,205.314865 
	C91.283958,204.144089 92.788750,202.973358 93.769638,201.559296 
	C92.555527,200.609360 91.337982,199.656738 90.467606,198.334229 
	C92.886223,198.322723 94.957649,198.681122 97.029083,199.039505 
	C97.335144,204.330688 97.898392,209.626129 97.810707,214.910767 
	C97.779121,216.814407 96.183029,218.692078 95.104919,220.893936 
	C94.171768,221.164291 93.434601,221.122314 92.344803,220.967346 
z"/>
<path fill="#969FA7" opacity="1.000000" stroke="none" 
	d="
M127.100235,200.971039 
	C128.875961,201.049591 130.651672,201.128143 133.405716,201.249985 
	C132.921661,208.727127 132.466644,215.755981 131.979965,223.168640 
	C130.562012,223.631454 129.175705,223.710464 127.399902,223.322845 
	C127.281715,221.579178 127.810677,220.296005 127.780479,219.026108 
	C127.637329,213.005753 127.341606,206.989044 127.100235,200.971039 
z"/>
<path fill="#ACB4BD" opacity="1.000000" stroke="none" 
	d="
M154.299149,221.399673 
	C153.618286,213.945877 153.128342,206.436111 153.177887,198.498322 
	C155.128189,197.701279 156.539017,197.332260 157.949844,196.963257 
	C158.415070,196.965088 158.880310,196.966934 159.926102,197.013153 
	C160.669830,197.106567 160.833008,197.155609 160.909943,197.548309 
	C159.356583,198.553802 157.889435,199.215668 155.631699,200.234177 
	C157.287872,200.616348 158.139969,200.812973 159.030319,201.369492 
	C159.049500,203.139206 159.074677,204.551331 159.000916,205.958282 
	C158.892166,208.032227 158.198196,210.228867 158.669510,212.148331 
	C159.690567,216.306778 158.597748,219.214432 154.856720,221.189163 
	C154.856720,221.189163 154.490051,221.343689 154.299149,221.399673 
z"/>
<path fill="#6B727E" opacity="1.000000" stroke="none" 
	d="
M194.941391,189.969421 
	C195.294403,193.936676 195.765320,197.898041 195.964600,201.873001 
	C196.136032,205.292542 195.997574,208.727600 195.995636,212.632599 
	C194.605225,213.542694 193.215332,213.976028 191.455048,214.442627 
	C191.261703,213.516510 191.611298,212.552917 191.587952,211.598450 
	C191.427658,205.039062 191.189346,198.481567 191.324326,191.430573 
	C192.762146,190.614914 193.851761,190.292175 194.941391,189.969421 
z"/>
<path fill="#7F8790" opacity="1.000000" stroke="none" 
	d="
M113.425827,223.072037 
	C113.002754,215.880096 113.010384,208.812683 113.442078,201.318192 
	C115.237968,200.917969 116.609795,200.944839 117.987610,201.413239 
	C118.482727,207.522736 118.892990,213.199356 119.513512,218.852905 
	C119.679649,220.366638 120.487411,221.809937 121.000618,223.285568 
	C118.619255,223.255905 116.237885,223.226242 113.425827,223.072037 
z"/>
<path fill="#525661" opacity="1.000000" stroke="none" 
	d="
M26.121468,202.081635 
	C25.996185,200.894272 25.996279,199.843048 25.997890,197.928558 
	C25.999844,186.429016 25.955179,175.792358 26.046188,165.156845 
	C26.060936,163.433289 26.677732,161.714890 27.016239,159.994110 
	C27.677687,161.106979 28.900299,162.212997 28.914003,163.333786 
	C29.055079,174.870407 29.052109,186.409958 28.928854,197.946991 
	C28.914976,199.246140 27.913450,200.534714 26.993088,202.034653 
	C26.616259,202.241104 26.246847,202.217773 26.121468,202.081635 
z"/>
<path fill="#96A1AA" opacity="1.000000" stroke="none" 
	d="
M169.012787,196.987045 
	C169.017639,204.157272 169.022491,211.327515 169.030228,219.015900 
	C167.289505,219.828476 165.545898,220.122894 163.443481,219.990707 
	C163.386520,215.375870 163.688370,211.187622 163.992950,206.601349 
	C163.992203,205.143127 163.988708,204.082947 163.989990,202.684662 
	C163.994263,201.895645 163.993790,201.444778 164.000610,200.645050 
	C164.696259,198.945770 165.384583,197.595337 166.072906,196.244904 
	C166.072922,196.244904 165.963867,196.024872 166.317352,195.989471 
	C167.441574,195.992447 168.212326,196.030823 168.991013,196.298645 
	C168.998947,196.528091 169.012787,196.987045 169.012787,196.987045 
z"/>
<path fill="#484E58" opacity="1.000000" stroke="none" 
	d="
M77.626442,201.007751 
	C78.668587,205.345215 79.428551,209.673859 79.937813,214.031799 
	C80.079399,215.243408 79.478310,216.541779 78.867172,218.073975 
	C76.493942,217.979706 74.471466,217.611816 72.163345,217.077438 
	C71.929939,213.655045 72.035667,210.398880 72.020073,207.143311 
	C72.002876,203.552399 73.875275,201.663422 77.626442,201.007751 
z"/>
<path fill="#4B4E5A" opacity="1.000000" stroke="none" 
	d="
M27.013348,159.663513 
	C26.677732,161.714890 26.060936,163.433289 26.046188,165.156845 
	C25.955179,175.792358 25.999844,186.429016 25.996849,197.534332 
	C25.024868,196.844391 23.227446,195.688477 23.223133,194.525940 
	C23.198835,187.977356 23.728533,181.429031 23.827461,174.876953 
	C23.910099,169.403702 23.660505,163.925400 23.303265,158.236389 
	C23.415981,156.463516 23.783470,154.903580 24.790318,153.138672 
	C25.962040,152.955612 26.494402,152.977539 27.026766,152.999451 
	C27.022312,153.441589 27.017859,153.883743 27.007511,155.035217 
	C27.004580,156.499786 27.007545,157.255020 27.010511,158.010239 
	C27.010492,158.451126 27.010473,158.892029 27.013348,159.663513 
z"/>
<path fill="#5C6169" opacity="1.000000" stroke="none" 
	d="
M91.024414,79.594452 
	C90.579842,78.520508 90.571770,76.776108 89.703934,75.783051 
	C86.897079,72.571190 87.950928,69.106720 88.270981,65.525558 
	C88.513184,62.815491 88.031479,60.040730 87.833710,56.913612 
	C88.985596,55.409721 90.175690,54.286980 91.669205,53.082867 
	C92.532974,53.169903 93.093323,53.338314 93.774612,54.163910 
	C93.267776,59.362339 92.240334,63.898853 92.186562,68.446877 
	C92.160980,70.610939 93.989639,72.796921 94.978340,74.972977 
	C93.674652,76.404655 92.370964,77.836327 91.024414,79.594452 
z"/>
<path fill="#899098" opacity="1.000000" stroke="none" 
	d="
M121.245041,223.478912 
	C120.487411,221.809937 119.679649,220.366638 119.513512,218.852905 
	C118.892990,213.199356 118.482727,207.522736 118.386887,201.386841 
	C119.843704,200.924850 120.907249,200.930771 122.124687,201.292847 
	C122.841873,208.954987 123.405151,216.260956 123.968437,223.566956 
	C123.142113,223.602051 122.315781,223.637161 121.245041,223.478912 
z"/>
<path fill="#64696F" opacity="1.000000" stroke="none" 
	d="
M33.550812,129.120499 
	C38.119358,133.298386 36.383293,138.614349 36.151512,143.735260 
	C36.041676,146.162003 36.470264,148.614273 36.343704,151.038727 
	C36.233311,153.153442 35.686123,155.245361 35.164673,157.673889 
	C34.331783,156.733917 33.153591,155.491821 33.091938,154.196579 
	C32.862099,149.368057 33.085049,144.519608 32.946487,139.684128 
	C32.903427,138.181564 32.253101,136.696396 31.506454,135.108322 
	C31.851740,133.120377 32.571362,131.227386 33.550812,129.120499 
z"/>
<path fill="#A5ABB2" opacity="1.000000" stroke="none" 
	d="
M163.990234,206.999390 
	C163.688370,211.187622 163.386520,215.375870 163.049866,220.025330 
	C160.589859,220.746979 158.164658,221.007401 155.298096,221.228485 
	C158.597748,219.214432 159.690567,216.306778 158.669510,212.148331 
	C158.198196,210.228867 158.892166,208.032227 159.000916,205.958282 
	C159.074677,204.551331 159.049500,203.139206 159.447510,201.364410 
	C161.215408,200.997574 162.604355,200.995728 163.993317,200.993896 
	C163.993790,201.444778 163.994263,201.895645 163.652527,202.730362 
	C162.675964,204.128204 162.041641,205.142212 161.407318,206.156219 
	C162.268295,206.437271 163.129272,206.718338 163.990234,206.999390 
z"/>
<path fill="#8C98A1" opacity="1.000000" stroke="none" 
	d="
M124.337143,223.670135 
	C123.405151,216.260956 122.841873,208.954987 122.394241,201.035767 
	C124.010918,200.392929 125.511925,200.363312 127.012939,200.333694 
	C127.012939,200.333694 127.043839,200.654190 127.072037,200.812607 
	C127.341606,206.989044 127.637329,213.005753 127.780479,219.026108 
	C127.810677,220.296005 127.281715,221.579178 126.993622,223.221893 
	C126.219833,223.649475 125.462837,223.711411 124.337143,223.670135 
z"/>
<path fill="#ACB3BA" opacity="1.000000" stroke="none" 
	d="
M140.412354,223.023651 
	C140.305710,215.573120 140.612991,208.154144 140.915192,200.313126 
	C140.910110,199.891068 140.967407,199.899307 141.205963,199.929214 
	C141.444519,199.959122 141.925339,199.963913 142.261581,199.985291 
	C143.046356,200.002243 143.494873,199.997833 143.943405,199.993408 
	C143.629547,205.562820 143.146927,211.130798 143.099106,216.702499 
	C143.083694,218.500717 144.211411,220.308746 144.887711,222.475647 
	C143.581573,222.911072 142.203918,222.983139 140.412354,223.023651 
z"/>
<path fill="#5C5E64" opacity="1.000000" stroke="none" 
	d="
M111.010124,61.004177 
	C111.010124,56.198349 111.010124,51.392517 111.010124,46.514824 
	C110.483437,46.514824 109.572350,46.514824 109.629181,46.514824 
	C109.748810,44.223507 109.858841,42.116127 109.818893,39.607708 
	C110.736961,38.342228 111.805000,37.477779 113.130417,36.467575 
	C113.924683,37.487049 114.461578,38.652279 114.996384,40.636059 
	C114.329636,46.514668 113.770187,51.592148 112.936707,56.624241 
	C112.684189,58.148766 111.673531,59.547714 111.010124,61.004177 
z"/>
<path fill="#2A9EBE" opacity="1.000000" stroke="none" 
	d="
M214.691040,159.577698 
	C219.686813,157.010010 225.077988,154.605133 230.820190,152.068802 
	C232.140594,154.688934 233.109985,157.440521 234.069305,160.572617 
	C232.729019,159.201736 231.398834,157.450348 229.613968,155.100327 
	C225.156845,156.523956 220.121628,158.132233 214.691040,159.577698 
z"/>
<path fill="#2A9EBE" opacity="1.000000" stroke="none" 
	d="
M230.982727,177.957626 
	C230.814987,177.987167 230.647263,178.016693 229.891479,178.115051 
	C227.953491,178.545914 226.603546,178.907913 225.164444,179.175110 
	C225.075272,179.080292 224.897430,178.890152 224.897430,178.890137 
	C227.205521,177.770599 229.644974,176.856140 231.790070,175.482147 
	C234.802948,173.552307 237.390747,171.280319 234.961090,167.080322 
	C234.341721,166.009644 234.398972,164.547546 234.237900,162.834656 
	C235.482254,166.347702 236.634048,170.291397 237.746857,174.618958 
	C237.507050,175.174271 237.317337,175.357239 236.744171,175.745605 
	C235.834808,176.248047 235.320007,176.556580 234.805206,176.865143 
	C234.389832,176.894928 233.974457,176.924713 232.971069,177.024048 
	C231.916290,177.381607 231.449509,177.669617 230.982727,177.957626 
z"/>
<path fill="#525661" opacity="1.000000" stroke="none" 
	d="
M27.345488,152.857239 
	C26.494402,152.977539 25.962040,152.955612 25.032192,152.894104 
	C25.455637,150.036743 26.276566,147.218964 27.327728,144.122009 
	C30.221903,145.750397 30.277332,150.378922 27.345488,152.857239 
z"/>
<path fill="#5A5D67" opacity="1.000000" stroke="none" 
	d="
M189.272949,117.874069 
	C190.273239,119.597054 191.273529,121.320038 191.978241,123.668762 
	C191.454285,132.340744 191.026260,140.387985 191.065628,148.432922 
	C191.093216,154.070602 191.758698,159.705154 192.148285,165.641663 
	C192.123383,166.341949 192.089493,166.741684 192.055603,167.141403 
	C191.276978,167.145966 190.498367,167.150543 189.194214,166.874390 
	C188.365616,166.065018 188.062546,165.536392 187.732254,164.648895 
	C186.221573,160.193863 184.738113,156.097702 183.599823,151.922760 
	C188.513046,144.901154 187.306488,137.367630 186.137741,129.856171 
	C186.085342,129.519379 185.390244,129.282578 184.995575,128.666504 
	C184.995407,127.890198 184.994186,127.446617 184.997070,126.607094 
	C186.425079,123.432129 187.849014,120.653099 189.272949,117.874069 
z"/>
<path fill="#404656" opacity="1.000000" stroke="none" 
	d="
M208.629181,157.020157 
	C209.289536,157.767792 209.949905,158.515442 210.803513,159.796570 
	C210.959503,160.535751 210.922241,160.741425 210.884979,160.947083 
	C210.884979,160.947083 210.446579,160.966385 209.890045,160.982895 
	C208.570786,161.389938 207.808075,161.780472 207.045380,162.171021 
	C205.926208,162.476349 204.807053,162.781677 203.000641,163.166183 
	C199.873398,163.785217 197.433395,164.325043 194.956604,164.572418 
	C194.617279,162.851288 194.314743,161.422623 194.302643,159.964096 
	C194.727402,159.293045 194.861725,158.651840 194.996643,157.582733 
	C194.669708,154.435791 194.342178,151.716751 194.365295,148.937241 
	C196.873825,145.886887 199.031693,142.896988 201.189560,139.907089 
	C201.522415,140.613815 201.855255,141.320541 202.148285,142.732758 
	C203.372772,145.628738 204.637070,147.819244 205.901367,150.009750 
	C206.327515,151.327423 206.753677,152.645111 207.135971,154.646393 
	C207.604477,155.893387 208.116837,156.456772 208.629181,157.020157 
z"/>
<path fill="#C9F5FC" opacity="1.000000" stroke="none" 
	d="
M187.759476,165.007767 
	C188.062546,165.536392 188.365616,166.065018 188.804779,166.868439 
	C188.830032,167.424454 188.651871,167.653259 187.914551,167.950684 
	C186.871902,168.354904 186.321060,168.638123 185.770233,168.921341 
	C169.211655,171.511246 152.726379,174.836517 136.075089,176.496170 
	C117.251671,178.372314 98.574509,175.363617 79.580658,171.604370 
	C79.094795,171.400543 78.943520,171.019119 79.402847,170.980789 
	C82.519524,171.021332 85.191887,170.946716 87.831642,171.205154 
	C100.397522,172.435425 112.932968,174.435928 125.521339,174.835114 
	C136.047577,175.168930 146.714600,174.262268 157.167404,172.811050 
	C167.579620,171.365448 178.290436,170.428116 187.759476,165.007767 
z"/>
<path fill="#2A9EBE" opacity="1.000000" stroke="none" 
	d="
M78.943520,171.019119 
	C78.943520,171.019119 79.094795,171.400543 79.177559,171.586868 
	C75.911865,171.413589 72.563400,171.054001 68.021667,170.566238 
	C66.579338,175.154083 64.777275,180.418518 63.386490,185.789429 
	C63.165279,186.643707 64.578514,188.272675 65.613396,189.023392 
	C67.444275,190.351517 69.565033,191.280014 71.760208,192.645493 
	C68.546265,192.190948 65.136589,191.466690 61.351990,190.568298 
	C62.672932,183.579971 64.368797,176.765808 66.099014,169.562714 
	C66.133354,169.173782 66.153709,169.153107 66.385017,169.094299 
	C66.982109,168.727417 67.347893,168.419357 68.087692,168.226135 
	C71.955643,169.233688 75.449585,170.126404 78.943520,171.019119 
z"/>
<path fill="#2A9EBE" opacity="1.000000" stroke="none" 
	d="
M195.227325,189.703690 
	C193.851761,190.292175 192.762146,190.614914 191.334564,191.013611 
	C188.575378,191.706070 186.154144,192.322571 183.369278,193.031891 
	C182.536407,193.073303 182.067139,193.021881 181.254303,192.880127 
	C182.039505,191.990128 183.059998,190.800385 184.314133,190.452179 
	C194.877838,187.519089 205.484314,184.739975 216.535767,181.956039 
	C216.993622,181.997513 217.104950,182.144394 216.911224,182.361832 
	C216.101974,183.040848 215.486450,183.502426 214.870911,183.964005 
	C213.054352,184.443604 211.237808,184.923203 209.182907,185.654816 
	C206.652679,186.600494 204.360794,187.294159 201.920898,188.294067 
	C199.686356,188.879547 197.599808,189.158752 195.227325,189.703690 
z"/>
<path fill="#2A9EBE" opacity="1.000000" stroke="none" 
	d="
M127.413284,200.246918 
	C125.511925,200.363312 124.010918,200.392929 122.240341,200.679626 
	C120.907249,200.930771 119.843704,200.924850 118.380890,200.945328 
	C116.609795,200.944839 115.237968,200.917969 113.455780,200.881256 
	C113.001389,200.492661 112.957367,200.113892 112.864685,199.453888 
	C119.326485,199.122055 125.836945,199.071442 132.793564,199.096222 
	C131.431030,199.501129 129.622330,199.830643 127.413284,200.246918 
z"/>
<path fill="#2A9EBE" opacity="1.000000" stroke="none" 
	d="
M144.195892,199.689972 
	C143.494873,199.997833 143.046356,200.002243 142.183151,199.822571 
	C141.501450,199.725449 141.234436,199.812378 140.967407,199.899307 
	C140.967407,199.899307 140.910110,199.891068 140.880371,199.884567 
	C139.738159,199.771515 138.625671,199.664963 137.260239,199.341339 
	C143.817001,198.220306 150.626724,197.316360 157.693146,196.687836 
	C156.539017,197.332260 155.128189,197.701279 153.366547,198.196655 
	C150.159958,198.677521 147.304169,199.032013 144.195892,199.689972 
z"/>
<path fill="#2A9EBE" opacity="1.000000" stroke="none" 
	d="
M97.436340,199.017731 
	C94.957649,198.681122 92.886223,198.322723 90.419144,197.990967 
	C88.625221,197.638367 87.226944,197.259155 85.468887,196.862091 
	C85.093346,196.672623 85.077583,196.501007 85.067551,196.070099 
	C90.325813,196.552826 95.578354,197.294876 100.963867,198.387451 
	C100.012428,198.823959 98.928009,198.909958 97.436340,199.017731 
z"/>
<path fill="#9AABB4" opacity="1.000000" stroke="none" 
	d="
M164.000610,200.645050 
	C162.604355,200.995728 161.215408,200.997574 159.409256,201.004517 
	C158.139969,200.812973 157.287872,200.616348 155.631699,200.234177 
	C157.889435,199.215668 159.356583,198.553802 161.108078,197.376190 
	C161.592224,196.582962 161.792007,196.305481 161.991791,196.027985 
	C161.991791,196.027985 162.011032,196.016815 162.264893,196.034927 
	C162.518753,196.053040 162.997894,195.946762 162.997894,195.946762 
	C163.770660,195.987259 164.543442,196.027756 165.694550,196.156586 
	C165.384583,197.595337 164.696259,198.945770 164.000610,200.645050 
z"/>
<path fill="#2A9EBE" opacity="1.000000" stroke="none" 
	d="
M168.983078,196.069199 
	C168.212326,196.030823 167.441574,195.992447 166.292389,195.869263 
	C169.358994,194.864716 172.804031,193.945007 176.696350,193.069351 
	C176.645767,193.716248 176.147873,194.319092 175.349060,195.010529 
	C173.598846,195.284973 172.149597,195.470840 170.105377,195.817734 
	C169.334641,196.008911 169.158859,196.039062 168.983078,196.069199 
z"/>
<path fill="#2A9EBE" opacity="1.000000" stroke="none" 
	d="
M194.993408,164.864883 
	C197.433395,164.325043 199.873398,163.785217 202.680191,163.313293 
	C199.553345,164.745056 196.059708,166.108902 192.310822,167.307068 
	C192.089493,166.741684 192.123383,166.341949 192.500549,165.559372 
	C193.560349,165.072647 194.276886,164.968765 194.993408,164.864883 
z"/>
<path fill="#2A9EBE" opacity="1.000000" stroke="none" 
	d="
M216.937500,181.924423 
	C219.296692,180.884186 221.711990,179.917038 224.512360,178.920013 
	C224.897430,178.890152 225.075272,179.080292 225.061859,179.422638 
	C224.980392,180.112335 224.912323,180.459702 224.844254,180.807068 
	C224.844254,180.807068 224.965881,180.973053 224.501434,180.866180 
	C221.726303,181.220993 219.415619,181.682693 217.104950,182.144394 
	C217.104950,182.144394 216.993622,181.997513 216.937500,181.924423 
z"/>
<path fill="#2A9EBE" opacity="1.000000" stroke="none" 
	d="
M105.390549,199.893555 
	C104.693184,199.779999 104.429535,199.588776 104.125473,199.094879 
	C105.872414,198.757523 107.712845,198.649658 109.782135,198.833603 
	C108.597717,199.379974 107.184448,199.634537 105.390549,199.893555 
z"/>
<path fill="#2A9EBE" opacity="1.000000" stroke="none" 
	d="
M80.754776,194.739426 
	C78.905846,194.745483 76.850639,194.441147 74.410538,194.146988 
	C73.752525,193.945084 73.479424,193.733002 73.078049,193.297058 
	C75.482689,193.525146 78.015602,193.977097 80.754776,194.739426 
z"/>
<path fill="#2A9EBE" opacity="1.000000" stroke="none" 
	d="
M207.220612,162.384277 
	C207.808075,161.780472 208.570786,161.389938 209.677765,161.038345 
	C209.146637,161.584045 208.271240,162.090805 207.220612,162.384277 
z"/>
<path fill="#2A9EBE" opacity="1.000000" stroke="none" 
	d="
M211.268539,160.984665 
	C210.922241,160.741425 210.959503,160.535751 211.022812,160.016830 
	C211.751465,159.593506 212.454086,159.483398 213.509674,159.420044 
	C213.125793,159.985275 212.388947,160.503769 211.268539,160.984665 
z"/>
<path fill="#2A9EBE" opacity="1.000000" stroke="none" 
	d="
M161.705444,196.017670 
	C161.792007,196.305481 161.592224,196.582962 161.194305,197.032547 
	C160.833008,197.155609 160.669830,197.106567 160.271103,196.959076 
	C160.496719,196.576202 160.957901,196.291794 161.705444,196.017670 
z"/>
<path fill="#2A9EBE" opacity="1.000000" stroke="none" 
	d="
M186.095428,168.945282 
	C186.321060,168.638123 186.871902,168.354904 187.742020,168.087677 
	C187.514420,168.392197 186.967529,168.680695 186.095428,168.945282 
z"/>
<path fill="#2A9EBE" opacity="1.000000" stroke="none" 
	d="
M162.912109,195.776550 
	C162.997894,195.946762 162.518753,196.053040 162.274826,196.029938 
	C162.296036,195.873322 162.561188,195.739822 162.912109,195.776550 
z"/>
<path fill="#BBBDC3" opacity="1.000000" stroke="none" 
	d="
M148.083221,66.893280 
	C150.244400,68.818710 152.405563,70.744141 154.702637,73.272385 
	C154.306747,74.996017 153.305374,76.123695 153.321640,77.236504 
	C153.407669,83.123734 153.617813,89.017715 154.084030,94.885590 
	C154.222672,96.630486 155.329788,98.298447 155.998352,100.334457 
	C156.006714,101.111084 156.009888,101.554901 155.724991,102.129776 
	C154.907089,102.911064 154.377289,103.561302 153.563721,104.036209 
	C151.497284,101.647545 149.714600,99.434212 147.954300,96.787186 
	C147.654999,91.235229 147.333298,86.116982 147.009995,80.623825 
	C147.007843,79.499115 147.007278,78.749306 147.282837,77.747772 
	C147.701462,74.662285 147.843994,71.828529 147.990189,68.644226 
	C148.023651,67.826881 148.053436,67.360077 148.083221,66.893280 
z"/>
<path fill="#898B93" opacity="1.000000" stroke="none" 
	d="
M166.367310,87.071503 
	C168.598846,89.471962 170.830383,91.872429 172.834076,94.652565 
	C172.213959,95.609451 171.473541,96.192139 171.482513,96.763054 
	C171.589371,103.568726 172.114212,110.385521 171.829544,117.170029 
	C171.730789,119.523743 169.697830,121.796303 168.301041,123.928299 
	C166.821930,121.841919 165.590088,119.933174 164.686646,117.964600 
	C165.903214,116.819969 167.553162,115.736908 167.555634,114.650093 
	C167.571457,107.693199 167.372452,100.724831 166.870117,93.787308 
	C166.773575,92.454086 165.018585,91.240944 164.033051,89.600220 
	C164.814041,88.509186 165.590683,87.790344 166.367310,87.071503 
z"/>
<path fill="#767781" opacity="1.000000" stroke="none" 
	d="
M177.182312,99.933060 
	C178.403046,101.395477 179.623764,102.857895 180.914246,104.894188 
	C180.972427,105.645096 180.960892,105.822128 180.583252,106.075958 
	C179.503586,109.252121 178.227997,112.345093 178.192703,115.452148 
	C178.117783,122.048027 178.793579,128.649536 178.900604,135.252960 
	C178.920517,136.481262 177.717789,137.729370 176.828262,138.740601 
	C175.301483,136.030960 174.025772,133.549088 173.066299,131.024994 
	C173.382553,129.921341 173.382553,128.859909 173.382553,127.838959 
	C174.032913,126.311966 175.346191,124.624016 175.373764,122.915314 
	C175.477341,116.497047 175.042801,110.070862 175.105453,103.650520 
	C175.117615,102.404724 176.455780,101.171875 177.182312,99.933060 
z"/>
<path fill="#4F535E" opacity="1.000000" stroke="none" 
	d="
M194.956604,164.572418 
	C194.276886,164.968765 193.560349,165.072647 192.491562,165.258820 
	C191.758698,159.705154 191.093216,154.070602 191.065628,148.432922 
	C191.026260,140.387985 191.454285,132.340744 192.046814,124.005722 
	C192.887650,124.292458 193.364319,124.867943 193.931564,126.137947 
	C194.019653,134.220871 194.017151,141.609283 194.014648,148.997696 
	C194.342178,151.716751 194.669708,154.435791 194.752945,157.747589 
	C194.343185,158.891541 194.177689,159.442749 194.012207,159.993942 
	C194.314743,161.422623 194.617279,162.851288 194.956604,164.572418 
z"/>
<path fill="#6A6B71" opacity="1.000000" stroke="none" 
	d="
M116.996452,41.042572 
	C117.843925,41.617985 118.691406,42.193390 119.802139,43.251976 
	C120.410004,44.146835 120.754608,44.558510 121.099213,44.970188 
	C121.099213,44.970188 121.024422,44.946133 120.995926,45.278221 
	C120.761086,46.235283 120.344063,46.872692 120.380112,47.483353 
	C120.884048,56.020012 121.449867,64.553024 121.698273,72.952103 
	C119.571472,71.315804 117.747009,69.814308 115.948700,67.926636 
	C115.984047,67.026619 115.993240,66.512787 116.169281,65.615601 
	C116.556229,57.169018 116.776337,49.105793 116.996452,41.042572 
z"/>
<path fill="#7D7D87" opacity="1.000000" stroke="none" 
	d="
M177.150711,99.589539 
	C176.455780,101.171875 175.117615,102.404724 175.105453,103.650520 
	C175.042801,110.070862 175.477341,116.497047 175.373764,122.915314 
	C175.346191,124.624016 174.032913,126.311966 173.382553,127.838959 
	C173.382553,128.859909 173.382553,129.921341 172.787704,130.842606 
	C170.977997,128.503601 169.763153,126.304764 168.548309,124.105927 
	C169.697830,121.796303 171.730789,119.523743 171.829544,117.170029 
	C172.114212,110.385521 171.589371,103.568726 171.482513,96.763054 
	C171.473541,96.192139 172.213959,95.609451 172.970779,94.981140 
	C174.596573,96.368706 175.857849,97.807365 177.150711,99.589539 
z"/>
<path fill="#93929A" opacity="1.000000" stroke="none" 
	d="
M130.011078,51.967155 
	C132.953720,54.080910 135.896378,56.194668 138.611328,58.818996 
	C137.921860,60.989735 137.114273,62.639076 137.061920,64.312050 
	C136.892151,69.737656 137.087570,75.174286 136.942703,80.601334 
	C136.902390,82.111168 136.170349,83.602539 135.481720,84.951050 
	C133.833710,83.518745 132.459610,82.237778 131.386139,80.797058 
	C132.349243,77.597176 133.489594,74.569023 133.566238,71.514191 
	C133.692520,66.480911 133.215424,61.422333 132.738831,56.398499 
	C132.686447,55.846264 130.973587,55.451557 130.026703,54.606857 
	C130.018723,53.475666 130.014893,52.721413 130.011078,51.967155 
z"/>
<path fill="#74747F" opacity="1.000000" stroke="none" 
	d="
M122.000610,73.086922 
	C121.449867,64.553024 120.884048,56.020012 120.380112,47.483353 
	C120.344063,46.872692 120.761086,46.235283 121.023689,45.250427 
	C122.565926,45.736389 124.051918,46.582237 125.764549,48.148266 
	C125.992393,57.246284 125.993591,65.624123 125.622398,74.001160 
	C124.506592,73.997719 123.763176,73.995087 122.797592,73.906097 
	C122.284523,73.653351 122.092918,73.409073 122.000610,73.086922 
z"/>
<path fill="#A4A6AD" opacity="1.000000" stroke="none" 
	d="
M140.043243,59.865776 
	C141.283829,60.644646 142.524399,61.423519 143.854980,62.919548 
	C143.961899,70.091522 143.978806,76.546341 144.046417,83.401947 
	C144.037918,86.893921 143.978699,89.985100 143.643707,92.906082 
	C141.879532,91.172379 140.391129,89.608894 139.262878,87.973808 
	C139.763092,78.556732 139.903168,69.211258 140.043243,59.865776 
z"/>
<path fill="#AFB0B7" opacity="1.000000" stroke="none" 
	d="
M155.993149,100.001656 
	C155.329788,98.298447 154.222672,96.630486 154.084030,94.885590 
	C153.617813,89.017715 153.407669,83.123734 153.321640,77.236504 
	C153.305374,76.123695 154.306747,74.996017 154.914642,73.537132 
	C156.837769,74.926216 158.684784,76.653374 160.215942,78.709122 
	C159.267349,80.336861 158.166000,81.608917 158.089066,82.940186 
	C157.850525,87.067520 158.182968,91.229408 157.909271,95.352356 
	C157.804047,96.937546 156.662506,98.453926 155.993149,100.001656 
z"/>
<path fill="#9C9DA6" opacity="1.000000" stroke="none" 
	d="
M166.381317,86.706757 
	C165.590683,87.790344 164.814041,88.509186 164.021576,90.017975 
	C163.702652,92.739136 163.110794,94.675980 163.148407,96.600525 
	C163.282822,103.476723 163.630859,110.348740 163.618515,117.020416 
	C161.958908,114.665749 160.578873,112.513016 159.543228,110.189835 
	C160.259140,102.386597 160.552338,94.748604 161.059631,87.124847 
	C161.179947,85.316986 162.018265,83.556915 162.526306,81.774857 
	C163.815979,83.297241 165.105667,84.819618 166.381317,86.706757 
M163.411255,85.483978 
	C163.411255,85.483978 163.522522,85.417427 163.411255,85.483978 
z"/>
<path fill="#7D8088" opacity="1.000000" stroke="none" 
	d="
M125.994789,74.001961 
	C125.993591,65.624123 125.992393,57.246284 125.980591,48.390671 
	C127.284416,49.047428 128.598846,50.181957 129.962173,51.641823 
	C130.014893,52.721413 130.018723,53.475666 129.859802,54.968834 
	C129.930161,58.502045 130.350021,61.295937 130.356155,64.090736 
	C130.367737,69.362602 130.141068,74.634987 129.712326,79.807953 
	C128.618423,79.491219 127.825615,79.273682 126.986237,78.744766 
	C126.630714,77.663528 126.321754,76.893669 126.007675,75.769936 
	C125.999969,74.944687 125.997375,74.473328 125.994789,74.001961 
z"/>
<path fill="#A4A6AD" opacity="1.000000" stroke="none" 
	d="
M162.320374,81.502487 
	C162.018265,83.556915 161.179947,85.316986 161.059631,87.124847 
	C160.552338,94.748604 160.259140,102.386597 159.305573,110.050629 
	C158.091446,109.133316 157.459381,108.184761 156.995377,106.891251 
	C156.779999,105.030434 156.396530,103.514580 156.013077,101.998726 
	C156.009888,101.554901 156.006714,101.111084 155.998352,100.334457 
	C156.662506,98.453926 157.804047,96.937546 157.909271,95.352356 
	C158.182968,91.229408 157.850525,87.067520 158.089066,82.940186 
	C158.166000,81.608917 159.267349,80.336861 160.290298,79.013245 
	C161.158508,79.735901 161.636475,80.483009 162.320374,81.502487 
z"/>
<path fill="#60626C" opacity="1.000000" stroke="none" 
	d="
M116.694031,40.940987 
	C116.776337,49.105793 116.556229,57.169018 115.843658,65.569855 
	C113.908577,64.939880 112.465950,63.972301 111.023323,63.004723 
	C111.018456,62.560139 111.013588,62.115555 111.009422,61.337574 
	C111.673531,59.547714 112.684189,58.148766 112.936707,56.624241 
	C113.770187,51.592148 114.329636,46.514668 115.069420,41.011208 
	C115.560234,40.658340 115.975929,40.748875 116.694031,40.940987 
z"/>
<path fill="#999DA3" opacity="1.000000" stroke="none" 
	d="
M139.956390,59.649345 
	C139.903168,69.211258 139.763092,78.556732 138.957672,87.895981 
	C137.446762,86.960632 136.601212,86.031509 135.755646,85.102386 
	C136.170349,83.602539 136.902390,82.111168 136.942703,80.601334 
	C137.087570,75.174286 136.892151,69.737656 137.061920,64.312050 
	C137.114273,62.639076 137.921860,60.989735 138.740234,59.133087 
	C139.414261,59.008850 139.671829,59.174290 139.956390,59.649345 
z"/>
<path fill="#514753" opacity="1.000000" stroke="none" 
	d="
M194.365295,148.937241 
	C194.017151,141.609283 194.019653,134.220871 194.018692,126.408035 
	C196.389755,130.375061 198.764267,134.766525 201.164185,139.532532 
	C199.031693,142.896988 196.873825,145.886887 194.365295,148.937241 
z"/>
<path fill="#60626C" opacity="1.000000" stroke="none" 
	d="
M189.210602,117.516220 
	C187.849014,120.653099 186.425079,123.432129 184.704086,126.465019 
	C183.276016,126.140678 182.145035,125.562469 181.012299,124.586975 
	C181.011673,123.129776 181.012756,122.069862 181.397110,120.922333 
	C182.187912,119.201675 182.491531,117.533356 183.031128,115.945190 
	C183.613602,114.230721 184.416718,112.591217 185.123581,110.919014 
	C186.465134,112.998802 187.806702,115.078583 189.210602,117.516220 
z"/>
<path fill="#ABACB4" opacity="1.000000" stroke="none" 
	d="
M143.995728,83.001160 
	C143.978806,76.546341 143.961899,70.091522 144.012100,63.202110 
	C145.246002,63.673298 146.412796,64.579086 147.535919,65.912094 
	C147.692307,66.548317 147.892349,66.757301 148.092407,66.966293 
	C148.092407,66.966293 148.037994,66.937325 148.060608,66.915298 
	C148.053436,67.360077 148.023651,67.826881 147.704895,68.788246 
	C147.152267,72.182404 142.637787,74.882423 147.006714,77.999504 
	C147.007278,78.749306 147.007843,79.499115 146.732697,80.748779 
	C145.636566,81.832809 144.816147,82.416985 143.995728,83.001160 
z"/>
<path fill="#6C6975" opacity="1.000000" stroke="none" 
	d="
M185.077545,110.580925 
	C184.416718,112.591217 183.613602,114.230721 183.031128,115.945190 
	C182.491531,117.533356 182.187912,119.201675 181.426071,120.553940 
	C181.030960,115.515175 180.990158,110.757164 180.949341,105.999153 
	C180.960892,105.822128 180.972427,105.645096 181.011154,105.202904 
	C182.369400,106.706100 183.700470,108.474464 185.077545,110.580925 
z"/>
<path fill="#514753" opacity="1.000000" stroke="none" 
	d="
M205.898544,149.644379 
	C204.637070,147.819244 203.372772,145.628738 202.140625,143.037491 
	C203.413757,144.850830 204.654739,147.064926 205.898544,149.644379 
z"/>
<path fill="#514753" opacity="1.000000" stroke="none" 
	d="
M208.695602,156.712494 
	C208.116837,156.456772 207.604477,155.893387 207.125488,154.999542 
	C207.693237,155.247665 208.227631,155.826248 208.695602,156.712494 
z"/>
<path fill="#74747F" opacity="1.000000" stroke="none" 
	d="
M121.095215,44.679527 
	C120.754608,44.558510 120.410004,44.146835 120.039261,43.455627 
	C120.372490,43.580353 120.731857,43.984608 121.095215,44.679527 
z"/>
<path fill="#BBBDC3" opacity="1.000000" stroke="none" 
	d="
M148.037323,66.731705 
	C147.892349,66.757301 147.692307,66.548317 147.608536,66.214508 
	C147.724823,66.089691 147.982224,66.497124 148.037323,66.731705 
z"/>
<path fill="#BECD2B" opacity="1.000000" stroke="none" 
	d="
M66.152046,169.183594 
	C60.860798,172.565094 60.913021,178.207779 59.957993,183.505463 
	C59.010876,188.759247 57.632862,193.934021 56.594444,199.173309 
	C56.180244,201.263107 56.202320,203.436493 55.968384,205.565536 
	C55.547207,209.398605 53.286640,210.697784 49.781002,209.220322 
	C46.574375,207.868896 43.340565,206.581970 40.118736,205.266617 
	C40.263477,204.775604 40.408222,204.284592 40.552967,203.793579 
	C39.394161,204.183578 38.235355,204.573563 37.313099,204.883942 
	C34.377338,203.253143 39.459492,182.861526 42.071529,180.097488 
	C43.234531,173.786148 44.082542,169.184189 44.861130,164.158585 
	C44.836502,163.047836 44.881294,162.360718 45.341991,161.279724 
	C48.123222,156.537445 50.575523,152.231354 52.739090,147.784805 
	C52.997105,147.254517 51.681774,145.958710 51.095726,145.017731 
	C51.129459,144.583679 51.163189,144.149628 51.593353,143.322128 
	C54.277115,138.210571 56.564442,133.492477 58.851768,128.774368 
	C58.851772,128.774368 58.916664,128.388199 59.321369,128.149399 
	C60.281578,127.329109 60.963566,126.824821 61.372944,126.154144 
	C65.310196,119.703720 69.148895,113.192711 73.125160,106.766701 
	C75.614326,102.743965 78.290764,98.837105 80.883179,94.878250 
	C80.883179,94.878250 80.985886,94.912720 81.292313,94.807571 
	C84.161339,94.060364 85.651772,92.710320 84.818779,89.826035 
	C84.818779,89.826035 84.870491,89.829269 85.121063,89.783676 
	C85.537979,89.448616 85.704330,89.159134 85.870682,88.869659 
	C85.870682,88.869659 85.822922,88.861046 86.184189,88.867165 
	C87.309715,87.863022 88.073982,86.852760 88.838249,85.842499 
	C88.838249,85.842499 88.934570,85.843819 89.223267,85.776291 
	C92.983841,81.774536 96.455711,77.840309 99.927582,73.906075 
	C99.927582,73.906075 99.994095,73.990479 100.288757,73.948860 
	C101.031494,73.240509 101.479568,72.573769 101.927650,71.907036 
	C101.927650,71.907036 101.994682,71.969330 102.197060,71.872047 
	C102.580376,71.486656 102.761322,71.198547 102.942261,70.910439 
	C102.942261,70.910439 102.972740,71.004723 103.313599,70.957138 
	C109.334099,68.529915 114.510063,68.779526 119.108017,73.451210 
	C120.005257,74.362831 121.692017,74.497391 123.010635,74.984528 
	C123.006638,74.978691 123.023560,74.957985 123.048874,75.316925 
	C123.711609,77.428062 124.349022,79.180260 124.832642,81.158264 
	C124.419456,81.857269 124.160057,82.330467 123.587730,82.854095 
	C122.557266,83.613518 121.839722,84.322502 120.992035,85.133591 
	C120.861885,85.235710 120.766815,85.552605 120.515694,85.683731 
	C120.092400,86.138252 119.920235,86.461639 119.760223,86.751930 
	C119.772385,86.718834 119.701973,86.722679 119.399200,86.782257 
	C118.083748,87.566833 117.071075,88.291824 115.686874,89.008072 
	C111.365555,90.311325 108.423447,92.530991 108.041397,97.047241 
	C108.032333,97.029716 108.056778,97.039238 107.737885,97.045776 
	C107.064568,97.487457 106.710144,97.922607 106.199265,98.341705 
	C106.042809,98.325653 106.354477,98.334183 106.018539,98.382919 
	C105.499527,99.048004 105.316460,99.664352 105.080505,100.553658 
	C104.965309,101.189758 104.902985,101.552902 104.630005,101.946083 
	C104.419342,101.976128 103.994125,101.993752 103.665565,102.026581 
	C102.902145,102.730042 102.467285,103.400681 101.936508,104.327240 
	C101.323639,105.087753 100.806679,105.592339 99.991776,106.182442 
	C99.407936,106.794823 99.122055,107.321693 98.538391,107.934952 
	C97.792877,108.653511 97.345131,109.285683 96.751694,110.022545 
	C96.542885,110.227470 96.402679,110.375214 96.430077,110.419662 
	C96.544548,110.605415 96.709351,110.760155 96.810104,111.251350 
	C96.083717,112.691971 95.402946,113.807503 94.456566,115.027420 
	C93.784424,115.748886 93.377892,116.365967 92.780708,117.018074 
	C92.590057,117.053101 92.204910,117.097343 91.818024,117.117767 
	C91.080086,117.965424 90.729027,118.792656 90.406830,119.740318 
	C90.435699,119.860741 90.278076,120.051773 89.921356,120.146996 
	C87.289322,122.655060 84.346764,124.719688 82.870102,127.549316 
	C79.179726,134.620956 75.907837,141.940842 72.937187,149.349228 
	C70.343613,155.817230 68.390045,162.541855 66.153709,169.153107 
	C66.153709,169.153107 66.133354,169.173782 66.152046,169.183594 
z"/>
<path fill="#B7C64F" opacity="1.000000" stroke="none" 
	d="
M80.565582,94.921234 
	C78.290764,98.837105 75.614326,102.743965 73.125160,106.766701 
	C69.148895,113.192711 65.310196,119.703720 61.372944,126.154144 
	C60.963566,126.824821 60.281578,127.329109 59.389069,127.965683 
	C61.726852,122.319572 64.401634,116.618370 67.101456,110.568573 
	C69.002327,107.731178 70.878166,105.242386 73.117661,102.297035 
	C73.662033,101.528275 73.842766,101.216080 74.023491,100.903885 
	C74.023491,100.903885 74.091499,100.593155 74.092644,100.437157 
	C74.627312,100.010406 75.160835,99.739662 76.095764,99.058876 
	C76.670120,98.098946 76.843079,97.549049 77.016037,96.999161 
	C77.016037,96.999161 77.001060,96.998222 77.003838,97.006821 
	C78.087074,96.331680 79.167534,95.647957 80.565582,94.921234 
z"/>
<path fill="#B7C64F" opacity="1.000000" stroke="none" 
	d="
M58.529999,128.862930 
	C56.564442,133.492477 54.277115,138.210571 51.674599,143.005280 
	C52.641087,139.121078 53.922764,135.160294 55.224030,130.841202 
	C56.231819,129.972427 57.220024,129.461960 58.529999,128.862930 
z"/>
<path fill="#424F5D" opacity="1.000000" stroke="none" 
	d="
M219.035919,201.631042 
	C218.328629,200.742477 217.193146,199.522430 217.089462,198.220215 
	C216.818100,194.812393 216.997482,191.368668 217.001648,187.474213 
	C218.926315,187.283508 220.846527,187.557861 222.259644,187.759750 
	C221.048477,192.899658 220.063217,197.080887 219.035919,201.631042 
z"/>
<path fill="#424F5D" opacity="1.000000" stroke="none" 
	d="
M216.911224,182.361832 
	C219.415619,181.682693 221.726303,181.220993 224.429077,180.792999 
	C222.491028,181.885284 220.160889,182.943863 217.428421,184.005310 
	C216.547882,184.001022 216.069656,183.993866 215.231171,183.975357 
	C215.486450,183.502426 216.101974,183.040848 216.911224,182.361832 
z"/>
<path fill="#424F5D" opacity="1.000000" stroke="none" 
	d="
M225.216064,180.867554 
	C224.912323,180.459702 224.980392,180.112335 225.151031,179.517456 
	C226.603546,178.907913 227.953491,178.545914 229.654495,178.210464 
	C228.533005,179.134018 227.060425,180.031036 225.216064,180.867554 
z"/>
<path fill="#424F5D" opacity="1.000000" stroke="none" 
	d="
M235.131378,176.894180 
	C235.320007,176.556580 235.834808,176.248047 236.657425,175.922638 
	C236.462662,176.244919 235.960098,176.584076 235.131378,176.894180 
z"/>
<path fill="#424F5D" opacity="1.000000" stroke="none" 
	d="
M231.269501,177.960449 
	C231.449509,177.669617 231.916290,177.381607 232.670715,177.113434 
	C232.491028,177.409927 232.023666,177.686600 231.269501,177.960449 
z"/>
<path fill="#B7C64F" opacity="1.000000" stroke="none" 
	d="
M50.800732,145.025421 
	C51.681774,145.958710 52.997105,147.254517 52.739090,147.784805 
	C50.575523,152.231354 48.123222,156.537445 45.410137,160.939301 
	C46.031944,157.715424 47.036633,154.447876 47.956734,151.156693 
	C48.439594,149.429489 48.774261,147.660843 49.259239,145.519226 
	C49.730335,145.096069 50.118034,145.064606 50.800732,145.025421 
z"/>
<path fill="#484E58" opacity="1.000000" stroke="none" 
	d="
M75.041977,197.325256 
	C75.640678,197.452560 76.281349,197.900543 76.965843,198.667847 
	C76.367760,198.540100 75.725845,198.093018 75.041977,197.325256 
z"/>
<path fill="#64696F" opacity="1.000000" stroke="none" 
	d="
M38.533451,180.169662 
	C37.458656,185.252167 36.074482,190.478378 34.394089,195.932159 
	C33.200573,185.703781 35.399715,175.096405 32.518230,164.704895 
	C32.251987,163.744766 33.665722,162.318771 34.652069,161.054245 
	C37.765804,163.385452 39.684124,165.655670 37.548752,169.844330 
	C36.221920,172.446960 36.389954,175.848801 36.128223,178.912537 
	C36.093685,179.316833 37.490284,179.843399 38.533451,180.169662 
z"/>
<path fill="#525661" opacity="1.000000" stroke="none" 
	d="
M27.343533,157.957550 
	C27.007545,157.255020 27.004580,156.499786 27.006496,155.366852 
	C27.233103,155.961044 27.454830,156.932953 27.343533,157.957550 
z"/>
<path fill="#81868B" opacity="1.000000" stroke="none" 
	d="
M39.450912,124.534103 
	C39.418026,124.478294 39.483799,124.589912 39.450912,124.534103 
z"/>
<path fill="#505761" opacity="1.000000" stroke="none" 
	d="
M95.304916,74.810539 
	C93.989639,72.796921 92.160980,70.610939 92.186562,68.446877 
	C92.240334,63.898853 93.267776,59.362339 93.945786,54.411793 
	C96.638130,55.345524 97.538467,57.482544 97.012733,60.360531 
	C96.150322,65.081490 99.324745,70.195442 95.304916,74.810539 
z"/>
<path fill="#B7C64F" opacity="1.000000" stroke="none" 
	d="
M123.014626,74.990356 
	C121.692017,74.497391 120.005257,74.362831 119.108017,73.451210 
	C114.510063,68.779526 109.334099,68.529915 103.284943,70.916611 
	C104.762001,69.026756 106.608597,67.129852 109.075905,65.067154 
	C111.771927,66.038513 113.847237,67.175667 115.922539,68.312820 
	C117.747009,69.814308 119.571472,71.315804 121.698280,72.952103 
	C122.092918,73.409073 122.284523,73.653351 122.793396,74.155762 
	C123.011368,74.491776 123.014626,74.990356 123.014626,74.990356 
z"/>
<path fill="#B7C64F" opacity="1.000000" stroke="none" 
	d="
M99.612808,74.027199 
	C96.455711,77.840309 92.983841,81.774536 89.181580,85.800415 
	C89.492111,84.239349 90.133026,82.586639 90.882912,80.635513 
	C93.760597,78.274170 96.529320,76.211243 99.612808,74.027199 
z"/>
<path fill="#5C5E64" opacity="1.000000" stroke="none" 
	d="
M115.948700,67.926636 
	C113.847237,67.175667 111.771927,66.038513 109.334167,64.855118 
	C108.978882,64.407555 108.986061,64.006226 108.995544,63.303215 
	C109.447769,63.001240 109.897667,63.000950 110.685448,63.002693 
	C112.465950,63.972301 113.908577,64.939880 115.676819,65.953217 
	C115.993240,66.512787 115.984047,67.026619 115.948700,67.926636 
z"/>
<path fill="#B7C64F" opacity="1.000000" stroke="none" 
	d="
M101.654350,72.020889 
	C101.479568,72.573769 101.031494,73.240509 100.244461,73.918457 
	C100.397346,73.331360 100.889198,72.733047 101.654350,72.020889 
z"/>
<path fill="#B7C64F" opacity="1.000000" stroke="none" 
	d="
M102.697098,70.999954 
	C102.761322,71.198547 102.580376,71.486656 102.152306,71.862534 
	C102.087425,71.663361 102.269684,71.376419 102.697098,70.999954 
z"/>
<path fill="#888E94" opacity="1.000000" stroke="none" 
	d="
M73.790276,101.046631 
	C73.842766,101.216080 73.662033,101.528275 73.240089,101.975204 
	C73.184937,101.803085 73.371002,101.496239 73.790276,101.046631 
z"/>
<path fill="#797F83" opacity="1.000000" stroke="none" 
	d="
M76.769867,97.155762 
	C76.843079,97.549049 76.670120,98.098946 76.236977,98.790451 
	C76.159096,98.392166 76.341393,97.852264 76.769867,97.155762 
z"/>
<path fill="#B7C64F" opacity="1.000000" stroke="none" 
	d="
M84.514786,89.850754 
	C85.651772,92.710320 84.161339,94.060364 81.238426,94.813080 
	C81.494682,93.514343 82.111259,92.104950 82.865662,90.389381 
	C83.405930,90.013962 83.808357,89.944710 84.514786,89.850754 
z"/>
<path fill="#B7C64F" opacity="1.000000" stroke="none" 
	d="
M88.485092,85.855530 
	C88.073982,86.852760 87.309715,87.863022 86.181915,88.843002 
	C86.589561,87.831337 87.360748,86.849945 88.485092,85.855530 
z"/>
<path fill="#B7C64F" opacity="1.000000" stroke="none" 
	d="
M85.628723,88.950836 
	C85.704330,89.159134 85.537979,89.448616 85.121933,89.809578 
	C85.043755,89.598045 85.215263,89.315025 85.628723,88.950836 
z"/>
<path fill="#9AABB4" opacity="1.000000" stroke="none" 
	d="
M168.991013,196.298645 
	C169.158859,196.039062 169.334641,196.008911 169.778381,195.987244 
	C169.925110,196.312286 169.728210,196.571289 169.234207,196.879898 
	C169.012787,196.987045 168.998947,196.528091 168.991013,196.298645 
z"/>
<path fill="#9AABB4" opacity="1.000000" stroke="none" 
	d="
M163.992950,206.601349 
	C163.129272,206.718338 162.268295,206.437271 161.407318,206.156219 
	C162.041641,205.142212 162.675964,204.128204 163.647766,203.068481 
	C163.988708,204.082947 163.992203,205.143127 163.992950,206.601349 
z"/>
<path fill="#A3ADB5" opacity="1.000000" stroke="none" 
	d="
M141.205963,199.929214 
	C141.234436,199.812378 141.501450,199.725449 141.846909,199.801208 
	C141.925339,199.963913 141.444519,199.959122 141.205963,199.929214 
z"/>
<path fill="#FEFEFD" opacity="1.000000" stroke="none" 
	d="
M92.204910,117.097343 
	C92.204910,117.097343 92.590057,117.053101 93.104355,117.073288 
	C94.522606,117.594704 95.426552,118.095947 96.330505,118.597183 
	C96.614357,118.317223 96.898216,118.037254 97.182068,117.757286 
	C96.362099,116.812538 95.542137,115.867783 94.722168,114.923035 
	C95.402946,113.807503 96.083717,112.691971 96.912613,111.327225 
	C97.060722,111.078018 97.311150,111.126488 97.658890,111.088409 
	C98.666771,110.027397 99.326904,109.004456 99.993057,107.988289 
	C99.999084,107.995064 99.982254,107.987068 100.338127,107.963074 
	C101.799477,106.295265 102.904953,104.651443 104.025032,102.753853 
	C104.024460,102.331306 104.009293,102.162529 103.994125,101.993752 
	C103.994125,101.993752 104.419342,101.976128 104.987907,101.949142 
	C107.232330,101.667900 108.908188,101.413635 110.593430,101.157944 
	C110.323418,99.663078 110.064728,98.230888 109.812943,96.782883 
	C109.819855,96.767059 109.788124,96.741890 110.161606,96.813583 
	C113.590714,93.497742 116.646347,90.110214 119.701981,86.722687 
	C119.701973,86.722679 119.772385,86.718834 120.062546,86.686172 
	C120.490738,86.286545 120.628777,85.919579 120.766815,85.552605 
	C120.766815,85.552605 120.861885,85.235710 121.346619,85.131760 
	C122.521118,84.286423 123.210884,83.545044 123.900650,82.803665 
	C124.160057,82.330467 124.419456,81.857269 125.065834,81.187988 
	C125.452812,80.991913 125.921768,80.961418 126.343140,80.980118 
	C127.887520,80.961990 129.010529,80.925156 130.371552,80.905273 
	C130.609558,80.922226 131.085526,80.956818 131.085526,80.956818 
	C132.459610,82.237778 133.833710,83.518745 135.481720,84.951050 
	C136.601212,86.031509 137.446762,86.960632 138.597534,87.967575 
	C140.391129,89.608894 141.879532,91.172379 143.779968,93.203735 
	C145.438660,94.854691 146.685272,96.037781 147.931900,97.220879 
	C149.714600,99.434212 151.497284,101.647545 153.724213,104.293915 
	C155.054733,105.563370 155.941025,106.399788 156.827301,107.236206 
	C157.459381,108.184761 158.091446,109.133316 158.961182,110.221085 
	C160.578873,112.513016 161.958908,114.665749 163.685181,117.248268 
	C164.031403,117.678055 164.358231,118.024429 164.358231,118.024429 
	C165.590088,119.933174 166.821930,121.841919 168.301025,123.928299 
	C169.763153,126.304764 170.977997,128.503601 172.471451,130.884827 
	C174.025772,133.549088 175.301483,136.030960 176.849792,139.088440 
	C178.267090,141.833542 179.411789,144.003052 180.636993,146.528503 
	C181.563202,148.590164 182.408936,150.295853 183.254654,152.001556 
	C184.738113,156.097702 186.221573,160.193863 187.732254,164.648895 
	C178.290436,170.428116 167.579620,171.365448 157.167404,172.811050 
	C146.714600,174.262268 136.047577,175.168930 125.521339,174.835114 
	C112.932968,174.435928 100.397522,172.435425 87.831642,171.205154 
	C85.191887,170.946716 82.519524,171.021332 79.402847,170.980789 
	C75.449585,170.126404 71.955643,169.233688 68.091141,167.827728 
	C70.094833,161.332901 72.104454,155.172913 74.924469,149.409470 
	C79.776337,139.493408 85.133171,129.824448 90.278076,120.051773 
	C90.278076,120.051773 90.435699,119.860741 90.688751,119.578033 
	C91.362839,118.562660 91.783875,117.830002 92.204910,117.097343 
z"/>
<path fill="#61656F" opacity="1.000000" stroke="none" 
	d="
M183.599823,151.922760 
	C182.408936,150.295853 181.563202,148.590164 180.986969,146.313141 
	C181.173798,143.163574 181.091171,140.585358 181.343597,137.817535 
	C182.119293,135.990341 182.444397,134.309464 183.036545,132.728607 
	C183.525223,131.424042 184.329880,130.237854 184.994507,128.999207 
	C185.390244,129.282578 186.085342,129.519379 186.137741,129.856171 
	C187.306488,137.367630 188.513046,144.901154 183.599823,151.922760 
z"/>
<path fill="#6C6975" opacity="1.000000" stroke="none" 
	d="
M184.995575,128.666504 
	C184.329880,130.237854 183.525223,131.424042 183.036545,132.728607 
	C182.444397,134.309464 182.119293,135.990341 181.340576,137.353516 
	C181.006363,133.047470 181.010208,129.015869 181.014038,124.984261 
	C182.145035,125.562469 183.276016,126.140678 184.699997,126.860954 
	C184.994186,127.446617 184.995407,127.890198 184.995575,128.666504 
z"/>
<path fill="#514753" opacity="1.000000" stroke="none" 
	d="
M194.302643,159.964096 
	C194.177689,159.442749 194.343185,158.891541 194.752350,158.175491 
	C194.861725,158.651840 194.727402,159.293045 194.302643,159.964096 
z"/>
<path fill="#B7C64F" opacity="1.000000" stroke="none" 
	d="
M89.921356,120.146996 
	C85.133171,129.824448 79.776337,139.493408 74.924469,149.409470 
	C72.104454,155.172913 70.094833,161.332901 67.717125,167.712875 
	C67.347893,168.419357 66.982109,168.727417 66.385017,169.094299 
	C68.390045,162.541855 70.343613,155.817230 72.937187,149.349228 
	C75.907837,141.940842 79.179726,134.620956 82.870102,127.549316 
	C84.346764,124.719688 87.289322,122.655060 89.921356,120.146996 
z"/>
<path fill="#B2B7BC" opacity="1.000000" stroke="none" 
	d="
M147.954300,96.787186 
	C146.685272,96.037781 145.438660,94.854691 144.055756,93.373940 
	C143.978699,89.985100 144.037918,86.893921 144.046432,83.401947 
	C144.816147,82.416985 145.636566,81.832809 146.734283,81.123680 
	C147.333298,86.116982 147.654999,91.235229 147.954300,96.787186 
z"/>
<path fill="#B2B7BC" opacity="1.000000" stroke="none" 
	d="
M147.282837,77.747772 
	C142.637787,74.882423 147.152267,72.182404 147.701233,69.138794 
	C147.843994,71.828529 147.701462,74.662285 147.282837,77.747772 
z"/>
<path fill="#AFB0B7" opacity="1.000000" stroke="none" 
	d="
M156.995377,106.891251 
	C155.941025,106.399788 155.054733,105.563370 154.007965,104.469246 
	C154.377289,103.561302 154.907089,102.911064 155.724991,102.129776 
	C156.396530,103.514580 156.779999,105.030434 156.995377,106.891251 
z"/>
<path fill="#93979F" opacity="1.000000" stroke="none" 
	d="
M164.686646,117.964600 
	C164.358231,118.024429 164.031403,117.678055 163.964752,117.450195 
	C163.630859,110.348740 163.282822,103.476723 163.148407,96.600525 
	C163.110794,94.675980 163.702652,92.739136 164.017227,90.390167 
	C165.018585,91.240944 166.773575,92.454086 166.870117,93.787308 
	C167.372452,100.724831 167.571457,107.693199 167.555634,114.650093 
	C167.553162,115.736908 165.903214,116.819969 164.686646,117.964600 
z"/>
<path fill="#6C717B" opacity="1.000000" stroke="none" 
	d="
M181.012299,124.586975 
	C181.010208,129.015869 181.006363,133.047470 181.005539,137.543091 
	C181.091171,140.585358 181.173798,143.163574 180.906464,145.957184 
	C179.411789,144.003052 178.267090,141.833542 177.100861,139.316193 
	C177.717789,137.729370 178.920517,136.481262 178.900604,135.252960 
	C178.793579,128.649536 178.117783,122.048027 178.192703,115.452148 
	C178.227997,112.345093 179.503586,109.252121 180.583267,106.075958 
	C180.990158,110.757164 181.030960,115.515175 181.042801,120.641571 
	C181.012756,122.069862 181.011673,123.129776 181.012299,124.586975 
z"/>
<path fill="#898B93" opacity="1.000000" stroke="none" 
	d="
M131.386139,80.797058 
	C131.085526,80.956818 130.609558,80.922226 130.334778,80.661156 
	C130.060013,80.400085 130.013428,79.907158 130.013428,79.907158 
	C130.141068,74.634987 130.367737,69.362602 130.356155,64.090736 
	C130.350021,61.295937 129.930161,58.502045 129.863953,55.345768 
	C130.973587,55.451557 132.686447,55.846264 132.738831,56.398499 
	C133.215424,61.422333 133.692520,66.480911 133.566238,71.514191 
	C133.489594,74.569023 132.349243,77.597176 131.386139,80.797058 
z"/>
<path fill="#6A6B71" opacity="1.000000" stroke="none" 
	d="
M123.010635,74.984528 
	C123.014626,74.990356 123.011368,74.491776 123.015564,74.242111 
	C123.763176,73.995087 124.506592,73.997719 125.622398,74.001160 
	C125.997375,74.473328 125.999969,74.944687 125.705231,75.643036 
	C124.613129,75.566017 123.818344,75.262001 123.023560,74.957985 
	C123.023560,74.957985 123.006638,74.978691 123.010635,74.984528 
z"/>
<path fill="#93979F" opacity="1.000000" stroke="none" 
	d="
M163.466888,85.450699 
	C163.522522,85.417427 163.411255,85.483978 163.466888,85.450699 
z"/>
<path fill="#B7C64F" opacity="1.000000" stroke="none" 
	d="
M123.048874,75.316925 
	C123.818344,75.262001 124.613129,75.566017 125.710358,75.996918 
	C126.321754,76.893669 126.630714,77.663528 126.854866,78.989883 
	C126.487297,80.018074 126.204536,80.489746 125.921768,80.961418 
	C125.921768,80.961418 125.452812,80.991913 125.219620,80.962189 
	C124.349022,79.180260 123.711609,77.428062 123.048874,75.316925 
z"/>
<path fill="#F7F9D5" opacity="1.000000" stroke="none" 
	d="
M126.343140,80.980118 
	C126.204536,80.489746 126.487297,80.018074 126.901428,79.301270 
	C127.825615,79.273682 128.618423,79.491219 129.712326,79.807953 
	C130.013428,79.907158 130.060013,80.400085 130.096771,80.644211 
	C129.010529,80.925156 127.887520,80.961990 126.343140,80.980118 
z"/>
<path fill="#F7F9D5" opacity="1.000000" stroke="none" 
	d="
M119.399200,86.782265 
	C116.646347,90.110214 113.590714,93.497742 110.240959,96.493683 
	C111.984024,93.740334 114.021210,91.378571 116.058403,89.016808 
	C117.071075,88.291824 118.083748,87.566833 119.399200,86.782265 
z"/>
<path fill="#B7C64F" opacity="1.000000" stroke="none" 
	d="
M115.686874,89.008072 
	C114.021210,91.378571 111.984024,93.740334 109.867477,96.421997 
	C109.788124,96.741890 109.819855,96.767059 109.518570,96.810959 
	C108.828346,96.924828 108.439407,96.994797 108.050461,97.064766 
	C108.423447,92.530991 111.365555,90.311325 115.686874,89.008072 
z"/>
<path fill="#F7F9D5" opacity="1.000000" stroke="none" 
	d="
M108.041397,97.047241 
	C108.439407,96.994797 108.828346,96.924828 109.511665,96.826782 
	C110.064728,98.230888 110.323418,99.663078 110.593430,101.157944 
	C108.908188,101.413635 107.232330,101.667900 105.198570,101.919098 
	C104.902985,101.552902 104.965309,101.189758 105.345520,100.392349 
	C105.893768,99.416786 106.124123,98.875481 106.354477,98.334183 
	C106.354477,98.334183 106.042809,98.325653 106.488708,98.321815 
	C107.308670,97.891731 107.682724,97.465485 108.056778,97.039238 
	C108.056778,97.039238 108.032333,97.029716 108.041397,97.047241 
z"/>
<path fill="#F7F9D5" opacity="1.000000" stroke="none" 
	d="
M104.010437,103.007622 
	C102.904953,104.651443 101.799477,106.295265 100.356972,107.643677 
	C100.109863,106.931160 100.199791,106.514038 100.289719,106.096924 
	C100.806679,105.592339 101.323639,105.087753 102.199966,104.221375 
	C103.043045,103.575600 103.526741,103.291611 104.010437,103.007622 
z"/>
<path fill="#F7F9D5" opacity="1.000000" stroke="none" 
	d="
M94.456558,115.027420 
	C95.542137,115.867783 96.362099,116.812538 97.182068,117.757286 
	C96.898216,118.037254 96.614357,118.317223 96.330505,118.597183 
	C95.426552,118.095947 94.522606,117.594704 93.295006,117.038254 
	C93.377892,116.365967 93.784424,115.748886 94.456558,115.027420 
z"/>
<path fill="#F7F9D5" opacity="1.000000" stroke="none" 
	d="
M123.587723,82.854095 
	C123.210884,83.545044 122.521118,84.286423 121.476761,85.029648 
	C121.839722,84.322502 122.557266,83.613518 123.587723,82.854095 
z"/>
<path fill="#B7C64F" opacity="1.000000" stroke="none" 
	d="
M91.818024,117.117767 
	C91.783875,117.830002 91.362839,118.562660 90.659882,119.457611 
	C90.729027,118.792656 91.080086,117.965424 91.818024,117.117767 
z"/>
<path fill="#B7C64F" opacity="1.000000" stroke="none" 
	d="
M104.025032,102.753853 
	C103.526741,103.291611 103.043045,103.575600 102.295883,103.965454 
	C102.467285,103.400681 102.902145,102.730042 103.665565,102.026581 
	C104.009293,102.162529 104.024460,102.331306 104.025032,102.753853 
z"/>
<path fill="#B7C64F" opacity="1.000000" stroke="none" 
	d="
M96.897385,109.917854 
	C97.345131,109.285683 97.792877,108.653511 98.588379,107.981384 
	C98.936134,107.941429 99.030075,108.036011 98.935028,108.307762 
	C98.296211,109.107399 97.752449,109.635277 97.130951,110.101715 
	C97.053215,110.040268 96.897385,109.917854 96.897385,109.917854 
z"/>
<path fill="#B7C64F" opacity="1.000000" stroke="none" 
	d="
M107.737885,97.045776 
	C107.682724,97.465485 107.308670,97.891731 106.645172,98.337868 
	C106.710144,97.922607 107.064568,97.487457 107.737885,97.045776 
z"/>
<path fill="#B7C64F" opacity="1.000000" stroke="none" 
	d="
M106.018539,98.382919 
	C106.124123,98.875481 105.893768,99.416786 105.398399,100.119385 
	C105.316460,99.664352 105.499527,99.048004 106.018539,98.382919 
z"/>
<path fill="#B7C64F" opacity="1.000000" stroke="none" 
	d="
M99.991776,106.182434 
	C100.199791,106.514038 100.109863,106.931160 100.001099,107.667671 
	C99.982254,107.987068 99.999084,107.995064 99.753128,107.989349 
	C99.507172,107.983635 99.030075,108.036011 99.030075,108.036011 
	C99.030075,108.036011 98.936134,107.941429 98.886154,107.894997 
	C99.122055,107.321693 99.407936,106.794823 99.991776,106.182434 
z"/>
<path fill="#B7C64F" opacity="1.000000" stroke="none" 
	d="
M96.958214,111.002136 
	C96.709351,110.760155 96.544548,110.605415 96.430077,110.419662 
	C96.402679,110.375214 96.542885,110.227470 96.751694,110.022545 
	C96.897385,109.917854 97.053215,110.040268 97.133537,110.344696 
	C97.213860,110.649124 97.311150,111.126488 97.311150,111.126488 
	C97.311150,111.126488 97.060722,111.078018 96.958214,111.002136 
z"/>
<path fill="#F7F9D5" opacity="1.000000" stroke="none" 
	d="
M120.515694,85.683731 
	C120.628777,85.919579 120.490738,86.286545 120.050385,86.719269 
	C119.920235,86.461639 120.092400,86.138252 120.515694,85.683731 
z"/>
<path fill="#F7F9D5" opacity="1.000000" stroke="none" 
	d="
M97.658890,111.088409 
	C97.311150,111.126488 97.213860,110.649124 97.211273,110.406143 
	C97.752449,109.635277 98.296211,109.107399 98.935028,108.307762 
	C99.030075,108.036011 99.507172,107.983635 99.747101,107.982574 
	C99.326904,109.004456 98.666771,110.027397 97.658890,111.088409 
z"/>
</svg>