<svg width="138" height="24" viewBox="0 0 138 24" fill="none" xmlns="http://www.w3.org/2000/svg">
<path d="M137.086 4.22729V19.5H134.856V4.22729H137.086Z" fill="#171717"/>
<path d="M128.728 19.7314C127.599 19.7314 126.627 19.4902 125.812 19.008C125.002 18.5208 124.375 17.8372 123.933 16.9572C123.495 16.0723 123.276 15.0357 123.276 13.8475C123.276 12.6742 123.495 11.6401 123.933 10.7452C124.375 9.85032 124.992 9.15181 125.782 8.64968C126.578 8.14755 127.507 7.89648 128.571 7.89648C129.217 7.89648 129.844 8.00337 130.45 8.21715C131.057 8.43093 131.601 8.76651 132.084 9.2239C132.566 9.68129 132.946 10.2754 133.225 11.0062C133.503 11.7321 133.642 12.6145 133.642 13.6536V14.4441H124.537V12.7736H131.457C131.457 12.187 131.338 11.6674 131.099 11.215C130.861 10.7576 130.525 10.3972 130.092 10.1337C129.665 9.87021 129.163 9.73846 128.586 9.73846C127.96 9.73846 127.413 9.89258 126.945 10.2008C126.483 10.5041 126.125 10.9018 125.872 11.394C125.623 11.8812 125.499 12.4107 125.499 12.9824V14.2875C125.499 15.0531 125.633 15.7044 125.901 16.2413C126.175 16.7782 126.555 17.1884 127.042 17.4718C127.53 17.7502 128.099 17.8894 128.75 17.8894C129.173 17.8894 129.558 17.8297 129.906 17.7104C130.254 17.5861 130.555 17.4022 130.808 17.1586C131.062 16.9149 131.256 16.6142 131.39 16.2562L133.5 16.6365C133.331 17.258 133.028 17.8024 132.591 18.2697C132.158 18.7321 131.614 19.0925 130.957 19.351C130.306 19.6046 129.563 19.7314 128.728 19.7314Z" fill="#171717"/>
<path d="M122.376 10.8422L120.355 11.2001C120.27 10.9416 120.136 10.6955 119.952 10.4618C119.773 10.2282 119.529 10.0368 119.221 9.88761C118.913 9.73846 118.528 9.66388 118.065 9.66388C117.434 9.66388 116.907 9.80558 116.484 10.089C116.062 10.3674 115.85 10.7278 115.85 11.1703C115.85 11.5531 115.992 11.8613 116.276 12.095C116.559 12.3287 117.016 12.5201 117.648 12.6692L119.467 13.0868C120.521 13.3304 121.307 13.7058 121.824 14.2129C122.341 14.72 122.599 15.3787 122.599 16.1891C122.599 16.8752 122.401 17.4867 122.003 18.0236C121.61 18.5556 121.061 18.9732 120.355 19.2765C119.654 19.5797 118.841 19.7314 117.916 19.7314C116.634 19.7314 115.587 19.4579 114.777 18.911C113.966 18.3592 113.469 17.5762 113.285 16.562L115.44 16.2338C115.575 16.7956 115.85 17.2207 116.268 17.5091C116.686 17.7924 117.23 17.9341 117.901 17.9341C118.632 17.9341 119.216 17.7825 119.654 17.4792C120.091 17.171 120.31 16.7956 120.31 16.3532C120.31 15.9952 120.176 15.6944 119.907 15.4508C119.644 15.2072 119.239 15.0233 118.692 14.899L116.753 14.4739C115.684 14.2303 114.893 13.8425 114.381 13.3105C113.874 12.7786 113.621 12.1049 113.621 11.2896C113.621 10.6135 113.81 10.0218 114.188 9.51474C114.565 9.00763 115.087 8.61239 115.754 8.32901C116.42 8.04066 117.183 7.89648 118.043 7.89648C119.281 7.89648 120.255 8.16495 120.966 8.70188C121.677 9.23384 122.147 9.94727 122.376 10.8422Z" fill="#171717"/>
<path d="M104.731 12.699V19.5002H102.501V8.04563H104.641V9.90998H104.783C105.046 9.30344 105.459 8.81623 106.021 8.44833C106.588 8.08043 107.301 7.89648 108.161 7.89648C108.942 7.89648 109.625 8.06055 110.212 8.38867C110.799 8.71183 111.253 9.19407 111.577 9.8354C111.9 10.4767 112.061 11.2697 112.061 12.2143V19.5002H109.832V12.4828C109.832 11.6525 109.615 11.0037 109.183 10.5364C108.75 10.0641 108.156 9.82795 107.4 9.82795C106.883 9.82795 106.424 9.93981 106.021 10.1635C105.623 10.3873 105.307 10.7154 105.074 11.1479C104.845 11.5755 104.731 12.0925 104.731 12.699Z" fill="#171717"/>
<path d="M98.5285 14.7498V8.04565H100.766V19.5002H98.5732V17.5165H98.4539C98.1904 18.128 97.7678 18.6376 97.1862 19.0453C96.6095 19.448 95.8911 19.6493 95.031 19.6493C94.2952 19.6493 93.6439 19.4878 93.0771 19.1646C92.5154 18.8365 92.0729 18.3518 91.7497 17.7104C91.4315 17.0691 91.2725 16.2761 91.2725 15.3315V8.04565H93.5022V15.0631C93.5022 15.8436 93.7185 16.465 94.151 16.9274C94.5835 17.3898 95.1453 17.6209 95.8364 17.6209C96.254 17.6209 96.6691 17.5165 97.0818 17.3077C97.4994 17.0989 97.8449 16.7832 98.1183 16.3606C98.3967 15.9381 98.5335 15.4011 98.5285 14.7498Z" fill="#171717"/>
<path d="M84.7037 19.7314C83.6299 19.7314 82.6927 19.4853 81.8923 18.9931C81.0919 18.5009 80.4704 17.8123 80.028 16.9274C79.5855 16.0424 79.3643 15.0083 79.3643 13.8251C79.3643 12.6369 79.5855 11.5978 80.028 10.7079C80.4704 9.818 81.0919 9.12695 81.8923 8.63477C82.6927 8.14258 83.6299 7.89648 84.7037 7.89648C85.7776 7.89648 86.7148 8.14258 87.5152 8.63477C88.3156 9.12695 88.9371 9.818 89.3795 10.7079C89.822 11.5978 90.0432 12.6369 90.0432 13.8251C90.0432 15.0083 89.822 16.0424 89.3795 16.9274C88.9371 17.8123 88.3156 18.5009 87.5152 18.9931C86.7148 19.4853 85.7776 19.7314 84.7037 19.7314ZM84.7112 17.8596C85.4072 17.8596 85.9839 17.6756 86.4413 17.3077C86.8987 16.9398 87.2368 16.4501 87.4555 15.8386C87.6792 15.2271 87.7911 14.5534 87.7911 13.8176C87.7911 13.0868 87.6792 12.4157 87.4555 11.8042C87.2368 11.1877 86.8987 10.693 86.4413 10.3201C85.9839 9.94727 85.4072 9.76083 84.7112 9.76083C84.0102 9.76083 83.4285 9.94727 82.9662 10.3201C82.5088 10.693 82.1682 11.1877 81.9445 11.8042C81.7258 12.4157 81.6164 13.0868 81.6164 13.8176C81.6164 14.5534 81.7258 15.2271 81.9445 15.8386C82.1682 16.4501 82.5088 16.9398 82.9662 17.3077C83.4285 17.6756 84.0102 17.8596 84.7112 17.8596Z" fill="#171717"/>
<path d="M78.56 9.19398H76.2333C76.1438 8.69682 75.9773 8.25932 75.7337 7.88148C75.4901 7.50364 75.1918 7.18297 74.8388 6.91948C74.4858 6.65598 74.0906 6.45712 73.6531 6.32289C73.2205 6.18865 72.7607 6.12154 72.2734 6.12154C71.3935 6.12154 70.6055 6.34277 69.9094 6.78525C69.2184 7.22772 68.6715 7.87651 68.2688 8.73162C67.8711 9.58674 67.6722 10.6308 67.6722 11.8637C67.6722 13.1066 67.8711 14.1556 68.2688 15.0107C68.6715 15.8659 69.2209 16.5122 69.9169 16.9497C70.6129 17.3872 71.396 17.6059 72.266 17.6059C72.7482 17.6059 73.2056 17.5413 73.6381 17.412C74.0756 17.2778 74.4709 17.0814 74.8239 16.8229C75.1768 16.5644 75.4751 16.2487 75.7188 15.8758C75.9673 15.498 76.1389 15.0654 76.2333 14.5782L78.56 14.5857C78.4357 15.3364 78.1946 16.0274 77.8366 16.6588C77.4837 17.2852 77.0288 17.8271 76.4719 18.2845C75.9201 18.7369 75.2887 19.0874 74.5778 19.336C73.8668 19.5846 73.0913 19.7089 72.2511 19.7089C70.9286 19.7089 69.7504 19.3957 68.7163 18.7693C67.6822 18.1379 66.8668 17.2355 66.2702 16.0622C65.6786 14.8889 65.3828 13.4894 65.3828 11.8637C65.3828 10.233 65.6811 8.83354 66.2777 7.66522C66.8743 6.49192 67.6896 5.59206 68.7237 4.96564C69.7578 4.33425 70.9336 4.01855 72.2511 4.01855C73.0614 4.01855 73.8171 4.13539 74.5181 4.36905C75.2241 4.59775 75.858 4.93581 76.4197 5.38326C76.9815 5.82573 77.4464 6.36763 77.8143 7.00897C78.1822 7.64533 78.4308 8.37367 78.56 9.19398Z" fill="#171717"/>
<path d="M56.471 23.7957C56.1379 23.7957 55.8346 23.7683 55.5612 23.7136C55.2877 23.6639 55.0839 23.6092 54.9497 23.5496L55.4866 21.7225C55.8943 21.8319 56.2572 21.8791 56.5754 21.8642C56.8936 21.8493 57.1744 21.73 57.4181 21.5062C57.6666 21.2825 57.8854 20.9171 58.0743 20.41L58.3502 19.6493L54.1592 8.04565H56.5455L59.4465 16.9349H59.5658L62.4667 8.04565H64.8605L60.14 21.029C59.9213 21.6256 59.6428 22.1302 59.3048 22.5428C58.9667 22.9604 58.564 23.2736 58.0967 23.4824C57.6294 23.6913 57.0874 23.7957 56.471 23.7957Z" fill="#171717"/>
<path d="M49.2619 19.7314C48.1333 19.7314 47.1614 19.4902 46.3461 19.008C45.5357 18.5208 44.9093 17.8372 44.4668 16.9572C44.0293 16.0723 43.8105 15.0357 43.8105 13.8475C43.8105 12.6742 44.0293 11.6401 44.4668 10.7452C44.9093 9.85032 45.5257 9.15181 46.3162 8.64968C47.1117 8.14755 48.0414 7.89648 49.1053 7.89648C49.7516 7.89648 50.378 8.00337 50.9846 8.21715C51.5911 8.43093 52.1355 8.76651 52.6177 9.2239C53.1 9.68129 53.4803 10.2754 53.7587 11.0062C54.0371 11.7321 54.1763 12.6145 54.1763 13.6536V14.4441H45.0708V12.7736H51.9913C51.9913 12.187 51.872 11.6674 51.6333 11.215C51.3947 10.7576 51.0591 10.3972 50.6266 10.1337C50.199 9.87021 49.6969 9.73846 49.1202 9.73846C48.4938 9.73846 47.9469 9.89258 47.4796 10.2008C47.0172 10.5041 46.6593 10.9018 46.4057 11.394C46.1571 11.8812 46.0328 12.4107 46.0328 12.9824V14.2875C46.0328 15.0531 46.1671 15.7044 46.4355 16.2413C46.709 16.7782 47.0893 17.1884 47.5765 17.4718C48.0637 17.7502 48.633 17.8894 49.2843 17.8894C49.7069 17.8894 50.0922 17.8297 50.4402 17.7104C50.7882 17.5861 51.089 17.4022 51.3425 17.1586C51.5961 16.9149 51.79 16.6142 51.9242 16.2562L54.0346 16.6365C53.8656 17.258 53.5623 17.8024 53.1248 18.2697C52.6923 18.7321 52.1479 19.0925 51.4917 19.351C50.8404 19.6046 50.0971 19.7314 49.2619 19.7314Z" fill="#171717"/>
<path d="M30.1777 19.5V4.22729H32.4821V10.8644H40.0961V4.22729H42.4078V19.5H40.0961V12.8406H32.4821V19.5H30.1777Z" fill="#171717"/>
<rect width="2.4" height="24" transform="matrix(1 0 0 -1 9.79199 24)" fill="#171717"/>
<rect width="2.4" height="24" transform="matrix(0.5 -0.866025 -0.866025 -0.5 20.7842 19.0393)" fill="#171717"/>
<rect width="2.4" height="24" transform="matrix(-0.5 -0.866025 -0.866025 0.5 21.9844 7.03931)" fill="#171717"/>
</svg>
