<svg version="1.1" id="Layer_1" xmlns="http://www.w3.org/2000/svg" xmlns:xlink="http://www.w3.org/1999/xlink" x="0px" y="0px"
	 width="100%" viewBox="0 0 1084 341" enable-background="new 0 0 1084 341" xml:space="preserve">
<path fill="#020101" opacity="1.000000" stroke="none" 
	d="
M1.000000,340.000000 
	C1.000000,228.977997 1.000000,117.955978 1.395035,6.188187 
	C3.287609,5.400455 4.785149,5.321764 6.282689,5.321746 
	C361.678253,5.317516 717.073792,5.318785 1072.469360,5.319898 
	C1074.257568,5.319903 1076.045776,5.319898 1078.394043,5.319898 
	C1078.394043,7.605084 1078.394043,9.385747 1078.394043,11.166410 
	C1078.393921,118.968063 1078.394897,226.769730 1078.384644,334.571381 
	C1078.384521,336.397797 1078.246826,338.224213 1077.699707,340.045441 
	C1074.393433,340.030701 1071.560791,340.012848 1068.728271,340.012817 
	C712.818848,340.007690 356.909424,340.003876 1.000000,340.000000 
M272.503296,260.047150 
	C276.928711,260.047150 281.354095,260.047150 286.367981,260.047150 
	C286.367981,232.199692 286.367981,205.152847 286.367981,178.241516 
	C311.859314,178.241516 336.741608,178.241516 361.960327,178.241516 
	C361.960327,180.324142 361.960175,181.968735 361.960358,183.613327 
	C361.962830,207.272324 362.083832,230.932419 361.863495,254.589340 
	C361.821594,259.086395 363.174438,260.419037 367.531067,260.126892 
	C372.838806,259.770935 378.215515,259.708832 383.512421,260.137421 
	C388.523621,260.542847 389.517761,258.553253 389.504425,253.915009 
	C389.353790,201.432449 389.410217,148.949310 389.410065,96.466316 
	C389.410065,93.300697 389.341217,90.133698 389.414581,86.969887 
	C389.477875,84.238289 388.327820,83.073524 385.531464,83.126228 
	C379.535583,83.239227 373.520294,83.424675 367.543182,83.070473 
	C363.130524,82.808968 361.820862,84.261017 361.871063,88.684135 
	C362.090363,108.008690 361.857391,127.338196 362.044037,146.663437 
	C362.084808,150.886261 361.103271,152.464722 356.515442,152.411514 
	C335.191833,152.164261 313.861969,152.141479 292.538849,152.403320 
	C287.539703,152.464706 285.970276,151.203278 286.053711,146.027237 
	C286.365204,126.705208 286.193726,107.375076 286.151520,88.048103 
	C286.146790,85.885017 286.971680,83.105568 283.083832,83.148964 
	C275.447876,83.234215 267.810333,83.174042 259.759155,83.174042 
	C259.759155,142.293610 259.759155,200.975647 259.759155,260.044922 
	C263.885529,260.044922 267.699005,260.044922 272.503296,260.047150 
M993.902771,155.586395 
	C968.628540,135.838562 934.783142,145.831772 920.497253,173.489899 
	C910.290283,193.250961 910.579285,213.722153 920.030518,233.919632 
	C932.501038,260.569305 965.054260,270.973358 989.010986,256.807434 
	C992.642395,254.660141 996.062683,252.155823 1000.102417,249.469681 
	C1000.211304,251.583618 1000.501648,253.052872 1000.319336,254.460907 
	C999.763611,258.752045 1001.232056,260.513458 1005.804871,260.131531 
	C1010.604431,259.730713 1015.491577,259.721283 1020.289001,260.135864 
	C1025.156372,260.556488 1026.368042,258.815826 1026.355103,254.049744 
	C1026.196533,195.385696 1026.252686,136.721054 1026.253418,78.056572 
	C1026.253418,75.556709 1026.169556,73.053154 1026.277466,70.557930 
	C1026.407593,67.550957 1025.090942,66.393761 1022.096863,66.488373 
	C1017.268433,66.640945 1012.431824,66.536324 1007.598694,66.540154 
	C1000.337463,66.545906 1000.341003,66.545837 1000.342224,74.057655 
	C1000.346619,100.889977 1000.352966,127.722290 1000.340576,154.554611 
	C1000.339783,156.285553 1000.186829,158.016449 1000.102844,159.785706 
	C999.291504,159.648071 998.903992,159.696671 998.687439,159.527054 
	C997.252869,158.403488 995.855042,157.233063 993.902771,155.586395 
M860.184692,259.726074 
	C873.400391,254.760422 882.542297,245.161057 889.729370,233.454834 
	C890.310547,232.508148 890.010864,229.885025 889.277954,229.445374 
	C882.923767,225.633545 876.376587,222.143311 870.101868,218.676193 
	C866.059998,223.541733 862.952515,228.732773 858.507019,232.216431 
	C854.263428,235.541885 848.794861,238.375610 843.555115,239.062378 
	C838.119873,239.774750 831.839294,238.741104 826.767822,236.538422 
	C816.488892,232.073929 809.680359,218.809357 812.255493,210.065414 
	C838.057068,210.065414 863.987366,210.065414 890.115479,210.065414 
	C890.326538,208.554062 890.691467,207.418701 890.604248,206.319229 
	C890.132446,200.374130 889.833252,194.395416 888.953369,188.506149 
	C885.476562,165.233032 869.284851,148.819290 844.667908,145.595581 
	C821.253418,142.529297 799.028625,154.131805 789.510071,175.383896 
	C783.266907,189.323196 782.401733,204.011688 785.058472,218.836105 
	C787.247375,231.050369 792.530701,241.925522 802.209106,250.059418 
	C819.298401,264.421539 838.754700,265.898499 860.184692,259.726074 
M471.352173,145.919937 
	C465.766083,147.438354 459.794403,148.153778 454.662354,150.617844 
	C435.146271,159.988159 422.922028,174.953842 420.438202,197.134201 
	C418.800476,211.759064 421.689209,225.303711 429.878052,237.368164 
	C445.276184,260.053925 471.967987,267.797516 497.130005,260.334290 
	C529.870422,250.623337 547.265015,215.834473 534.831604,182.678833 
	C525.447449,157.654633 499.016785,142.438156 471.352173,145.919937 
M125.314941,164.503281 
	C125.314941,196.247879 125.314941,227.992477 125.314941,259.793884 
	C134.244553,259.793884 142.521637,259.793884 151.341095,259.793884 
	C151.341095,257.747223 151.325546,255.952713 151.343460,254.158539 
	C151.547852,233.681213 151.026321,213.161697 152.206177,192.740555 
	C153.085587,177.519608 158.759735,167.689819 177.719894,168.902176 
	C184.553894,169.339142 191.166382,172.297028 192.531708,179.677841 
	C193.790604,186.483337 195.055328,193.392761 195.197205,200.279480 
	C195.567566,218.256363 195.324371,236.245880 195.325806,254.230362 
	C195.325943,256.013580 195.325836,257.796814 195.325836,259.642456 
	C204.231720,259.642456 212.590057,259.642456 220.596878,259.642456 
	C220.596878,232.455490 221.026947,205.665497 220.341156,178.904083 
	C220.128738,170.615250 216.852661,162.411743 210.380569,156.254456 
	C195.646301,142.236755 172.629395,141.547043 155.779709,154.614594 
	C154.555359,155.564117 153.386414,156.585068 151.351593,158.267410 
	C151.351593,155.043640 151.579010,153.040695 151.259796,151.129059 
	C151.089127,150.106979 149.995438,148.445984 149.285141,148.428604 
	C141.375549,148.235046 133.459473,148.306564 125.314941,148.306564 
	C125.314941,153.875168 125.314941,158.690521 125.314941,164.503281 
M657.651489,238.093887 
	C659.093079,229.477341 661.503296,220.891754 661.779968,212.237961 
	C662.407593,192.606171 661.991943,172.940811 661.976074,153.289108 
	C661.974792,151.708206 661.785767,150.127472 661.665344,148.255951 
	C654.647766,148.255951 648.154480,148.551590 641.703308,148.157822 
	C636.962402,147.868439 635.441162,149.246368 635.484741,154.170837 
	C635.675964,175.817505 635.605652,197.470016 635.311646,219.116074 
	C635.149170,231.072586 627.341248,239.235580 616.549500,239.548538 
	C602.376648,239.959549 594.834229,233.798203 593.617859,220.528427 
	C593.087036,214.737976 592.798706,208.907654 592.760315,203.093048 
	C592.650391,186.439789 592.784668,169.784760 592.631287,153.132202 
	C592.616455,151.525818 591.328186,148.578140 590.527710,148.541946 
	C582.784912,148.191971 575.019897,148.331924 567.294312,148.331924 
	C567.092896,149.690338 566.910645,150.341690 566.912170,150.992615 
	C566.970093,175.306610 566.862793,199.623199 567.216187,223.933090 
	C567.340027,232.450668 570.951843,239.977066 576.298462,246.649246 
	C595.287842,270.346680 642.486328,269.416962 657.651489,238.093887 
M765.224854,223.066406 
	C764.263245,211.847061 758.452209,203.875702 748.715881,198.601212 
	C744.052002,196.074677 739.275635,193.756165 734.605103,191.241470 
	C729.377869,188.427032 723.966431,185.853928 719.103760,182.497040 
	C715.628296,180.097839 714.911255,176.141083 717.222473,172.287079 
	C719.309998,168.806198 724.546692,167.606857 728.307922,169.996841 
	C730.624390,171.468796 732.450867,173.730026 734.433716,175.700867 
	C735.333374,176.594940 736.078674,177.644287 737.037048,178.794998 
	C744.113281,175.018402 750.906006,171.393082 757.627808,167.805649 
	C751.010010,149.245178 731.197144,140.676605 712.580627,147.853775 
	C690.225098,156.472427 686.091187,182.844681 696.723938,195.756393 
	C701.642639,201.729218 709.588318,205.301575 716.387512,209.605362 
	C722.229553,213.303284 728.699951,216.060562 734.317810,220.044220 
	C738.895447,223.290253 739.251465,228.534988 737.266479,233.618332 
	C735.430176,238.320648 731.360229,239.447235 726.742249,239.569107 
	C719.292358,239.765686 714.167053,236.336121 710.502686,230.002747 
	C709.571716,228.393707 706.977295,226.032837 706.087646,226.386093 
	C699.122009,229.151764 692.385437,232.494629 685.623718,235.638290 
	C695.315857,257.883667 712.977661,267.052856 736.683838,261.541809 
	C753.005493,257.747467 765.283081,244.348846 765.224854,223.066406 
M66.722771,260.035004 
	C73.818047,260.035004 80.913315,260.035004 87.923004,260.035004 
	C87.923004,200.789383 87.923004,142.255829 87.923004,83.516884 
	C79.058220,83.516884 70.531403,83.516884 61.745636,83.516884 
	C61.745636,142.399307 61.745636,200.942352 61.745636,259.753235 
	C63.218449,259.856140 64.498909,259.945618 66.722771,260.035004 
z"/>
<path fill="#EBEBEB" opacity="1.000000" stroke="none" 
	d="
M1078.173340,340.050629 
	C1078.246826,338.224213 1078.384521,336.397797 1078.384644,334.571381 
	C1078.394897,226.769730 1078.393921,118.968063 1078.394043,11.166410 
	C1078.394043,9.385747 1078.394043,7.605084 1078.394043,5.319898 
	C1076.045776,5.319898 1074.257568,5.319903 1072.469360,5.319898 
	C717.073792,5.318785 361.678253,5.317516 6.282689,5.321746 
	C4.785149,5.321764 3.287609,5.400455 1.395035,5.721202 
	C1.000000,4.333908 1.000000,2.667817 1.000000,1.062066 
	C362.333344,1.062066 723.666687,1.062066 1084.996826,1.062066 
	C1084.996826,114.749420 1084.996826,228.374710 1084.995117,342.000000 
	C1082.994263,342.000000 1080.995117,342.000000 1078.659180,341.696106 
	C1078.272705,340.945007 1078.222900,340.497803 1078.173340,340.050629 
z"/>
<path fill="#252525" opacity="1.000000" stroke="none" 
	d="
M1077.699585,340.045441 
	C1078.222900,340.497803 1078.272705,340.945007 1078.161133,341.696106 
	C720.500000,342.000000 363.000000,342.001221 5.500005,341.958771 
	C3.999968,341.958618 2.500003,341.333313 1.000001,340.500000 
	C356.909424,340.003876 712.818848,340.007690 1068.728271,340.012817 
	C1071.560791,340.012848 1074.393433,340.030701 1077.699585,340.045441 
z"/>
<path fill="#F7A109" opacity="1.000000" stroke="none" 
	d="
M272.007904,260.046021 
	C267.699005,260.044922 263.885529,260.044922 259.759155,260.044922 
	C259.759155,200.975647 259.759155,142.293610 259.759155,83.174042 
	C267.810333,83.174042 275.447876,83.234215 283.083832,83.148964 
	C286.971680,83.105568 286.146790,85.885017 286.151520,88.048103 
	C286.193726,107.375076 286.365204,126.705208 286.053711,146.027237 
	C285.970276,151.203278 287.539703,152.464706 292.538849,152.403320 
	C313.861969,152.141479 335.191833,152.164261 356.515442,152.411514 
	C361.103271,152.464722 362.084808,150.886261 362.044037,146.663437 
	C361.857391,127.338196 362.090363,108.008690 361.871063,88.684135 
	C361.820862,84.261017 363.130524,82.808968 367.543182,83.070473 
	C373.520294,83.424675 379.535583,83.239227 385.531464,83.126228 
	C388.327820,83.073524 389.477875,84.238289 389.414581,86.969887 
	C389.341217,90.133698 389.410065,93.300697 389.410065,96.466316 
	C389.410217,148.949310 389.353790,201.432449 389.504425,253.915009 
	C389.517761,258.553253 388.523621,260.542847 383.512421,260.137421 
	C378.215515,259.708832 372.838806,259.770935 367.531067,260.126892 
	C363.174438,260.419037 361.821594,259.086395 361.863495,254.589340 
	C362.083832,230.932419 361.962830,207.272324 361.960358,183.613327 
	C361.960175,181.968735 361.960327,180.324142 361.960327,178.241516 
	C336.741608,178.241516 311.859314,178.241516 286.367981,178.241516 
	C286.367981,205.152847 286.367981,232.199692 286.367981,260.047150 
	C281.354095,260.047150 276.928711,260.047150 272.007904,260.046021 
z"/>
<path fill="#F8A209" opacity="1.000000" stroke="none" 
	d="
M994.174011,155.832153 
	C995.855042,157.233063 997.252869,158.403488 998.687439,159.527054 
	C998.903992,159.696671 999.291504,159.648071 1000.102844,159.785706 
	C1000.186829,158.016449 1000.339783,156.285553 1000.340576,154.554611 
	C1000.352966,127.722290 1000.346619,100.889977 1000.342224,74.057655 
	C1000.341003,66.545837 1000.337463,66.545906 1007.598694,66.540154 
	C1012.431824,66.536324 1017.268433,66.640945 1022.096863,66.488373 
	C1025.090942,66.393761 1026.407593,67.550957 1026.277466,70.557930 
	C1026.169556,73.053154 1026.253418,75.556709 1026.253418,78.056572 
	C1026.252686,136.721054 1026.196533,195.385696 1026.355103,254.049744 
	C1026.368042,258.815826 1025.156372,260.556488 1020.289001,260.135864 
	C1015.491577,259.721283 1010.604431,259.730713 1005.804871,260.131531 
	C1001.232056,260.513458 999.763611,258.752045 1000.319336,254.460907 
	C1000.501648,253.052872 1000.211304,251.583618 1000.102417,249.469681 
	C996.062683,252.155823 992.642395,254.660141 989.010986,256.807434 
	C965.054260,270.973358 932.501038,260.569305 920.030518,233.919632 
	C910.579285,213.722153 910.290283,193.250961 920.497253,173.489899 
	C934.783142,145.831772 968.628540,135.838562 994.174011,155.832153 
M986.238586,173.121597 
	C971.143921,164.922791 955.740479,168.383148 945.950500,182.433868 
	C939.239197,192.065948 938.720215,202.980270 940.889832,213.996719 
	C943.134216,225.392899 949.139343,234.392944 960.662537,238.106873 
	C972.862183,242.038803 984.147949,239.788025 992.996277,230.143951 
	C1006.487305,215.439529 1004.885864,184.432007 986.238586,173.121597 
z"/>
<path fill="#F7A109" opacity="1.000000" stroke="none" 
	d="
M859.805420,259.833710 
	C838.754700,265.898499 819.298401,264.421539 802.209106,250.059418 
	C792.530701,241.925522 787.247375,231.050369 785.058472,218.836105 
	C782.401733,204.011688 783.266907,189.323196 789.510071,175.383896 
	C799.028625,154.131805 821.253418,142.529297 844.667908,145.595581 
	C869.284851,148.819290 885.476562,165.233032 888.953369,188.506149 
	C889.833252,194.395416 890.132446,200.374130 890.604248,206.319229 
	C890.691467,207.418701 890.326538,208.554062 890.115479,210.065414 
	C863.987366,210.065414 838.057068,210.065414 812.255493,210.065414 
	C809.680359,218.809357 816.488892,232.073929 826.767822,236.538422 
	C831.839294,238.741104 838.119873,239.774750 843.555115,239.062378 
	C848.794861,238.375610 854.263428,235.541885 858.507019,232.216431 
	C862.952515,228.732773 866.059998,223.541733 870.101868,218.676193 
	C876.376587,222.143311 882.923767,225.633545 889.277954,229.445374 
	C890.010864,229.885025 890.310547,232.508148 889.729370,233.454834 
	C882.542297,245.161057 873.400391,254.760422 859.805420,259.833710 
M831.500793,189.248901 
	C842.008118,189.248901 852.515381,189.248901 863.217896,189.248901 
	C860.242615,175.269775 850.720337,168.307327 836.466125,168.830688 
	C825.243530,169.242737 814.865295,178.359528 813.547913,189.247437 
	C819.221680,189.247437 824.861633,189.247437 831.500793,189.248901 
z"/>
<path fill="#F7A209" opacity="1.000000" stroke="none" 
	d="
M471.783813,145.833603 
	C499.016785,142.438156 525.447449,157.654633 534.831604,182.678833 
	C547.265015,215.834473 529.870422,250.623337 497.130005,260.334290 
	C471.967987,267.797516 445.276184,260.053925 429.878052,237.368164 
	C421.689209,225.303711 418.800476,211.759064 420.438202,197.134201 
	C422.922028,174.953842 435.146271,159.988159 454.662354,150.617844 
	C459.794403,148.153778 465.766083,147.438354 471.783813,145.833603 
M475.791656,168.934570 
	C470.306702,171.069901 463.994537,172.117935 459.491425,175.543823 
	C445.826233,185.940094 444.455444,200.700470 448.096100,216.083420 
	C453.499695,238.915482 477.233124,244.316315 494.303009,236.504272 
	C504.284760,231.936111 509.280823,223.492386 511.355835,212.937790 
	C515.444763,192.139435 505.181091,167.686417 475.791656,168.934570 
z"/>
<path fill="#F7F7F7" opacity="1.000000" stroke="none" 
	d="
M125.314941,164.004578 
	C125.314941,158.690521 125.314941,153.875168 125.314941,148.306564 
	C133.459473,148.306564 141.375549,148.235046 149.285141,148.428604 
	C149.995438,148.445984 151.089127,150.106979 151.259796,151.129059 
	C151.579010,153.040695 151.351593,155.043640 151.351593,158.267410 
	C153.386414,156.585068 154.555359,155.564117 155.779709,154.614594 
	C172.629395,141.547043 195.646301,142.236755 210.380569,156.254456 
	C216.852661,162.411743 220.128738,170.615250 220.341156,178.904083 
	C221.026947,205.665497 220.596878,232.455490 220.596878,259.642456 
	C212.590057,259.642456 204.231720,259.642456 195.325836,259.642456 
	C195.325836,257.796814 195.325943,256.013580 195.325806,254.230362 
	C195.324371,236.245880 195.567566,218.256363 195.197205,200.279480 
	C195.055328,193.392761 193.790604,186.483337 192.531708,179.677841 
	C191.166382,172.297028 184.553894,169.339142 177.719894,168.902176 
	C158.759735,167.689819 153.085587,177.519608 152.206177,192.740555 
	C151.026321,213.161697 151.547852,233.681213 151.343460,254.158539 
	C151.325546,255.952713 151.341095,257.747223 151.341095,259.793884 
	C142.521637,259.793884 134.244553,259.793884 125.314941,259.793884 
	C125.314941,227.992477 125.314941,196.247879 125.314941,164.004578 
z"/>
<path fill="#F7A109" opacity="1.000000" stroke="none" 
	d="
M657.509277,238.445648 
	C642.486328,269.416962 595.287842,270.346680 576.298462,246.649246 
	C570.951843,239.977066 567.340027,232.450668 567.216187,223.933090 
	C566.862793,199.623199 566.970093,175.306610 566.912170,150.992615 
	C566.910645,150.341690 567.092896,149.690338 567.294312,148.331924 
	C575.019897,148.331924 582.784912,148.191971 590.527710,148.541946 
	C591.328186,148.578140 592.616455,151.525818 592.631287,153.132202 
	C592.784668,169.784760 592.650391,186.439789 592.760315,203.093048 
	C592.798706,208.907654 593.087036,214.737976 593.617859,220.528427 
	C594.834229,233.798203 602.376648,239.959549 616.549500,239.548538 
	C627.341248,239.235580 635.149170,231.072586 635.311646,219.116074 
	C635.605652,197.470016 635.675964,175.817505 635.484741,154.170837 
	C635.441162,149.246368 636.962402,147.868439 641.703308,148.157822 
	C648.154480,148.551590 654.647766,148.255951 661.665344,148.255951 
	C661.785767,150.127472 661.974792,151.708206 661.976074,153.289108 
	C661.991943,172.940811 662.407593,192.606171 661.779968,212.237961 
	C661.503296,220.891754 659.093079,229.477341 657.509277,238.445648 
z"/>
<path fill="#F6A109" opacity="1.000000" stroke="none" 
	d="
M765.284180,223.476028 
	C765.283081,244.348846 753.005493,257.747467 736.683838,261.541809 
	C712.977661,267.052856 695.315857,257.883667 685.623718,235.638290 
	C692.385437,232.494629 699.122009,229.151764 706.087646,226.386093 
	C706.977295,226.032837 709.571716,228.393707 710.502686,230.002747 
	C714.167053,236.336121 719.292358,239.765686 726.742249,239.569107 
	C731.360229,239.447235 735.430176,238.320648 737.266479,233.618332 
	C739.251465,228.534988 738.895447,223.290253 734.317810,220.044220 
	C728.699951,216.060562 722.229553,213.303284 716.387512,209.605362 
	C709.588318,205.301575 701.642639,201.729218 696.723938,195.756393 
	C686.091187,182.844681 690.225098,156.472427 712.580627,147.853775 
	C731.197144,140.676605 751.010010,149.245178 757.627808,167.805649 
	C750.906006,171.393082 744.113281,175.018402 737.037048,178.794998 
	C736.078674,177.644287 735.333374,176.594940 734.433716,175.700867 
	C732.450867,173.730026 730.624390,171.468796 728.307922,169.996841 
	C724.546692,167.606857 719.309998,168.806198 717.222473,172.287079 
	C714.911255,176.141083 715.628296,180.097839 719.103760,182.497040 
	C723.966431,185.853928 729.377869,188.427032 734.605103,191.241470 
	C739.275635,193.756165 744.052002,196.074677 748.715881,198.601212 
	C758.452209,203.875702 764.263245,211.847061 765.284180,223.476028 
z"/>
<path fill="#FBFBFB" opacity="1.000000" stroke="none" 
	d="
M66.251068,260.035034 
	C64.498909,259.945618 63.218449,259.856140 61.745636,259.753235 
	C61.745636,200.942352 61.745636,142.399307 61.745636,83.516884 
	C70.531403,83.516884 79.058220,83.516884 87.923004,83.516884 
	C87.923004,142.255829 87.923004,200.789383 87.923004,260.035004 
	C80.913315,260.035004 73.818047,260.035004 66.251068,260.035034 
z"/>
<path fill="#050201" opacity="1.000000" stroke="none" 
	d="
M986.568237,173.288605 
	C1004.885864,184.432007 1006.487305,215.439529 992.996277,230.143951 
	C984.147949,239.788025 972.862183,242.038803 960.662537,238.106873 
	C949.139343,234.392944 943.134216,225.392899 940.889832,213.996719 
	C938.720215,202.980270 939.239197,192.065948 945.950500,182.433868 
	C955.740479,168.383148 971.143921,164.922791 986.568237,173.288605 
z"/>
<path fill="#080301" opacity="1.000000" stroke="none" 
	d="
M831.001221,189.248169 
	C824.861633,189.247437 819.221680,189.247437 813.547913,189.247437 
	C814.865295,178.359528 825.243530,169.242737 836.466125,168.830688 
	C850.720337,168.307327 860.242615,175.269775 863.217896,189.248901 
	C852.515381,189.248901 842.008118,189.248901 831.001221,189.248169 
z"/>
<path fill="#050301" opacity="1.000000" stroke="none" 
	d="
M476.248291,168.901703 
	C505.181091,167.686417 515.444763,192.139435 511.355835,212.937790 
	C509.280823,223.492386 504.284760,231.936111 494.303009,236.504272 
	C477.233124,244.316315 453.499695,238.915482 448.096100,216.083420 
	C444.455444,200.700470 445.826233,185.940094 459.491425,175.543823 
	C463.994537,172.117935 470.306702,171.069901 476.248291,168.901703 
z"/>
</svg>