<svg version="1.1" id="Layer_1" xmlns="http://www.w3.org/2000/svg" xmlns:xlink="http://www.w3.org/1999/xlink" x="0px" y="0px"
	 width="100%" viewBox="0 0 354 90" enable-background="new 0 0 354 90" xml:space="preserve">
<path fill="#FCFCFC" opacity="1.000000" stroke="none" 
	d="
M245.000000,91.000000 
	C163.333359,91.000000 82.166718,91.000000 1.000054,91.000000 
	C1.000036,61.000034 1.000036,31.000067 1.000018,1.000075 
	C118.999931,1.000050 236.999863,1.000050 354.999817,1.000025 
	C354.999878,30.999924 354.999878,60.999847 354.999939,90.999886 
	C318.500000,91.000000 282.000000,91.000000 245.000000,91.000000 
M346.326630,51.510265 
	C345.906525,46.721542 346.049713,41.798145 344.944000,37.173344 
	C342.911560,28.672575 336.647858,25.035931 328.332062,27.273983 
	C324.868347,28.206179 321.688293,30.192471 318.016968,31.864464 
	C312.178162,26.211260 305.380859,25.135893 297.779785,29.325314 
	C296.884491,29.818764 295.097168,29.163368 293.927246,28.609743 
	C288.060394,25.833494 284.686584,27.855171 284.671875,34.337181 
	C284.650696,43.665012 284.766937,52.994175 284.640533,62.320274 
	C284.585358,66.392128 286.617554,67.378136 290.243530,67.375763 
	C293.901550,67.373367 295.296173,65.920517 295.206604,62.290138 
	C295.046356,55.798126 295.036346,49.294918 295.225922,42.804050 
	C295.386749,37.296425 300.113190,33.561806 304.564270,35.915562 
	C306.865967,37.132710 309.033325,40.510685 309.369476,43.153095 
	C310.141876,49.224014 309.925079,55.446518 309.776917,61.599480 
	C309.683136,65.494034 310.731934,67.424843 315.065979,67.406525 
	C319.421722,67.388100 320.451691,65.330559 320.366180,61.511116 
	C320.224579,55.185310 320.312286,48.852657 320.395782,42.524109 
	C320.455841,37.970036 323.530884,36.018013 327.431488,35.470673 
	C331.272583,34.931683 333.857391,37.086926 334.769348,40.746090 
	C335.406403,43.302177 335.629333,46.001133 335.713684,48.646595 
	C335.862244,53.305935 335.876862,57.976658 335.733246,62.636009 
	C335.612823,66.544250 337.734955,67.346039 341.082031,67.362610 
	C344.546295,67.379745 346.471741,66.261749 346.338745,62.493725 
	C346.221313,59.166664 346.322174,55.831898 346.326630,51.510265 
M246.304932,52.573261 
	C247.608231,46.452591 246.875031,40.604870 243.368713,35.382545 
	C238.133209,27.584738 228.673264,24.719366 219.009995,27.733881 
	C210.374878,30.427656 205.527176,37.854595 205.667618,48.175045 
	C205.814529,58.969967 212.271896,66.799805 222.120071,68.124382 
	C234.783218,69.827568 242.956284,64.807343 246.304932,52.573261 
M102.961098,57.339100 
	C108.241096,67.554840 122.653763,72.147758 133.202118,66.694809 
	C134.495468,66.026222 134.887192,63.613522 135.696747,62.009075 
	C134.132477,61.267357 132.598083,59.980724 130.997971,59.893044 
	C127.224022,59.686249 123.336487,60.600563 119.646469,60.048424 
	C114.748695,59.315563 112.943306,56.183681 113.575226,50.165306 
	C119.555611,50.165306 125.672325,50.379440 131.756683,50.030113 
	C133.500443,49.930000 136.128464,48.577995 136.678375,47.154045 
	C139.388763,40.135822 134.098648,29.962404 126.925606,27.550436 
	C115.815681,23.814680 104.024109,29.998518 101.922050,41.461803 
	C101.033066,46.309780 102.327156,51.558075 102.961098,57.339100 
M69.527885,38.830601 
	C60.754642,38.838573 60.753212,38.838573 60.750214,47.421474 
	C60.748531,52.243313 60.877037,57.069382 60.713608,61.885624 
	C60.588448,65.573837 61.787209,67.381577 65.804474,67.410942 
	C69.900681,67.440872 71.602966,65.861580 71.360313,61.799511 
	C71.192078,58.983299 71.411133,56.146114 71.325615,53.322285 
	C71.204247,49.314510 72.695305,47.168995 77.071747,47.153214 
	C79.858124,47.143169 82.694656,46.542816 85.416626,45.846985 
	C94.156082,43.612858 99.129921,36.992111 98.722664,28.417177 
	C98.338692,20.332375 93.112183,14.462994 84.273041,13.156304 
	C78.219933,12.261473 72.037666,12.236510 65.912262,11.836155 
	C62.899323,11.639229 60.706921,12.240709 60.739548,16.052826 
	C60.771839,19.825790 62.989845,20.262127 65.972633,20.361813 
	C70.940392,20.527836 75.959290,20.567575 80.845001,21.354101 
	C84.986595,22.020834 87.621483,24.878046 87.656105,29.365612 
	C87.691673,33.974777 85.237900,37.041054 80.859398,37.976162 
	C77.491089,38.695526 73.943771,38.576675 69.527885,38.830601 
M37.374432,29.083260 
	C37.193398,36.707867 36.885033,44.332359 36.878292,51.957123 
	C36.874138,56.656334 34.567673,59.207787 30.177975,59.678123 
	C25.901381,60.136345 23.180052,57.812431 22.360664,53.655277 
	C21.785345,50.736420 21.485989,47.736248 21.368940,44.760372 
	C21.199129,40.443016 21.297321,36.114822 21.295649,31.791245 
	C21.294191,28.027756 18.810326,27.641180 15.878717,27.673498 
	C13.155574,27.703516 10.726956,27.999346 10.869854,31.576323 
	C11.200969,39.864716 10.934906,48.241699 12.089758,56.416233 
	C13.567888,66.879066 22.712364,71.013657 32.343636,66.671478 
	C34.055180,65.899849 36.634102,66.004036 38.441490,66.686447 
	C44.234295,68.873627 47.293774,67.000488 47.315754,60.724941 
	C47.345463,52.243973 47.332382,43.762810 47.321869,35.281754 
	C47.312210,27.490437 46.001396,26.530443 37.374432,29.083260 
M205.041306,16.089699 
	C205.475220,13.441389 206.346695,10.443189 202.331955,9.928971 
	C193.990646,8.860595 184.083344,11.652371 182.761185,22.775932 
	C182.446121,25.426626 181.612488,27.355743 178.494263,28.057926 
	C177.354660,28.314550 175.982803,30.614761 175.979630,31.985615 
	C175.976395,33.380577 177.314316,35.750992 178.437897,35.998028 
	C182.143982,36.812866 182.655197,39.229122 182.659668,42.240349 
	C182.668564,48.223969 182.723373,54.208225 182.654144,60.191002 
	C182.609497,64.049736 182.406128,67.456810 188.087860,67.430977 
	C193.571716,67.406052 193.218155,64.104736 193.181305,60.472729 
	C193.120621,54.489727 193.267502,48.503407 193.133957,42.522789 
	C193.046280,38.596985 194.150436,36.050129 198.641647,36.243752 
	C201.256699,36.356491 203.177032,35.706600 203.177902,32.435089 
	C203.178741,29.335653 201.996857,27.864363 198.793701,27.787729 
	C196.602539,27.735310 193.281006,27.962933 193.903534,24.605837 
	C194.301315,22.460678 196.360947,20.239506 198.264236,18.871330 
	C199.989380,17.631191 202.511871,17.500225 205.041306,16.089699 
M253.674149,34.655445 
	C253.679184,43.976028 253.749390,53.297249 253.657913,62.616882 
	C253.620087,66.469513 255.669678,67.349731 259.032349,67.363258 
	C262.470978,67.377090 264.404236,66.347168 264.270447,62.528660 
	C264.119019,58.206688 264.240265,53.875080 264.246887,49.547668 
	C264.260803,40.481136 265.360596,39.193424 274.030365,36.558746 
	C275.597473,36.082520 277.608917,34.484959 277.956726,33.051254 
	C279.131378,28.209503 276.152130,25.982180 271.114807,27.831856 
	C268.068146,28.950586 265.711823,29.998604 262.075165,28.184631 
	C256.960999,25.633656 254.019562,28.084364 253.674149,34.655445 
M144.835587,47.500053 
	C144.838058,52.487633 144.981598,57.480434 144.797043,62.461082 
	C144.656937,66.241905 146.409195,67.395790 149.912903,67.362831 
	C153.226990,67.331635 155.438690,66.566841 155.330963,62.679493 
	C155.229706,59.024960 155.323837,55.365112 155.325562,51.707603 
	C155.330917,40.408188 155.301941,40.327785 166.029373,36.622665 
	C169.787216,35.324760 169.891434,32.347599 168.793152,29.843218 
	C168.230164,28.559477 165.155838,27.627693 163.355164,27.822021 
	C160.999329,28.076258 158.780716,29.601818 156.383270,30.631952 
	C154.260193,26.687056 150.302948,27.065897 147.049454,28.262833 
	C145.722824,28.750895 145.116287,32.312790 144.929993,34.538780 
	C144.598389,38.501129 144.836029,42.511120 144.835587,47.500053 
M60.351170,77.198524 
	C59.270008,80.487312 59.265087,83.794785 62.622826,85.507195 
	C64.402100,86.414612 67.533295,86.765511 68.946815,85.779755 
	C70.826881,84.468636 72.501320,81.649666 72.605110,79.401894 
	C72.683159,77.711647 70.298119,74.613190 68.745903,74.434723 
	C66.189934,74.140831 63.420677,75.701935 60.351170,77.198524 
z"/>
<path fill="#112044" opacity="1.000000" stroke="none" 
	d="
M346.326660,52.005402 
	C346.322174,55.831898 346.221313,59.166664 346.338745,62.493725 
	C346.471741,66.261749 344.546295,67.379745 341.082031,67.362610 
	C337.734955,67.346039 335.612823,66.544250 335.733246,62.636009 
	C335.876862,57.976658 335.862244,53.305935 335.713684,48.646595 
	C335.629333,46.001133 335.406403,43.302177 334.769348,40.746090 
	C333.857391,37.086926 331.272583,34.931683 327.431488,35.470673 
	C323.530884,36.018013 320.455841,37.970036 320.395782,42.524109 
	C320.312286,48.852657 320.224579,55.185310 320.366180,61.511116 
	C320.451691,65.330559 319.421722,67.388100 315.065979,67.406525 
	C310.731934,67.424843 309.683136,65.494034 309.776917,61.599480 
	C309.925079,55.446518 310.141876,49.224014 309.369476,43.153095 
	C309.033325,40.510685 306.865967,37.132710 304.564270,35.915562 
	C300.113190,33.561806 295.386749,37.296425 295.225922,42.804050 
	C295.036346,49.294918 295.046356,55.798126 295.206604,62.290138 
	C295.296173,65.920517 293.901550,67.373367 290.243530,67.375763 
	C286.617554,67.378136 284.585358,66.392128 284.640533,62.320274 
	C284.766937,52.994175 284.650696,43.665012 284.671875,34.337181 
	C284.686584,27.855171 288.060394,25.833494 293.927246,28.609743 
	C295.097168,29.163368 296.884491,29.818764 297.779785,29.325314 
	C305.380859,25.135893 312.178162,26.211260 318.016968,31.864464 
	C321.688293,30.192471 324.868347,28.206179 328.332062,27.273983 
	C336.647858,25.035931 342.911560,28.672575 344.944000,37.173344 
	C346.049713,41.798145 345.906525,46.721542 346.326660,52.005402 
z"/>
<path fill="#142447" opacity="1.000000" stroke="none" 
	d="
M246.214844,52.976501 
	C242.956284,64.807343 234.783218,69.827568 222.120071,68.124382 
	C212.271896,66.799805 205.814529,58.969967 205.667618,48.175045 
	C205.527176,37.854595 210.374878,30.427656 219.009995,27.733881 
	C228.673264,24.719366 238.133209,27.584738 243.368713,35.382545 
	C246.875031,40.604870 247.608231,46.452591 246.214844,52.976501 
M235.901245,45.799946 
	C235.598526,44.172203 235.557800,42.436787 234.941772,40.937805 
	C233.375671,37.127106 230.646103,34.618958 226.262955,34.651749 
	C221.973114,34.683842 218.924667,36.735134 217.604797,40.840115 
	C216.902985,43.022873 216.372833,45.362701 216.339767,47.639969 
	C216.229721,55.220547 220.241791,60.487358 225.900497,60.587784 
	C231.770935,60.691963 235.541473,56.028786 235.951462,48.146652 
	C235.977310,47.649864 235.947083,47.150158 235.901245,45.799946 
z"/>
<path fill="#142346" opacity="1.000000" stroke="none" 
	d="
M102.795044,56.981758 
	C102.327156,51.558075 101.033066,46.309780 101.922050,41.461803 
	C104.024109,29.998518 115.815681,23.814680 126.925606,27.550436 
	C134.098648,29.962404 139.388763,40.135822 136.678375,47.154045 
	C136.128464,48.577995 133.500443,49.930000 131.756683,50.030113 
	C125.672325,50.379440 119.555611,50.165306 113.575226,50.165306 
	C112.943306,56.183681 114.748695,59.315563 119.646469,60.048424 
	C123.336487,60.600563 127.224022,59.686249 130.997971,59.893044 
	C132.598083,59.980724 134.132477,61.267357 135.696747,62.009075 
	C134.887192,63.613522 134.495468,66.026222 133.202118,66.694809 
	C122.653763,72.147758 108.241096,67.554840 102.795044,56.981758 
M122.745209,43.552132 
	C126.740517,42.107197 127.957397,38.384525 124.642853,36.003326 
	C122.674339,34.589119 118.922211,34.177616 116.686539,35.081875 
	C114.886307,35.810009 114.158081,39.188545 112.954224,41.391144 
	C115.116386,42.158882 117.257362,42.997215 119.452301,43.655720 
	C120.210785,43.883270 121.103447,43.663609 122.745209,43.552132 
z"/>
<path fill="#122245" opacity="1.000000" stroke="none" 
	d="
M70.001968,38.830582 
	C73.943771,38.576675 77.491089,38.695526 80.859398,37.976162 
	C85.237900,37.041054 87.691673,33.974777 87.656105,29.365612 
	C87.621483,24.878046 84.986595,22.020834 80.845001,21.354101 
	C75.959290,20.567575 70.940392,20.527836 65.972633,20.361813 
	C62.989845,20.262127 60.771839,19.825790 60.739548,16.052826 
	C60.706921,12.240709 62.899323,11.639229 65.912262,11.836155 
	C72.037666,12.236510 78.219933,12.261473 84.273041,13.156304 
	C93.112183,14.462994 98.338692,20.332375 98.722664,28.417177 
	C99.129921,36.992111 94.156082,43.612858 85.416626,45.846985 
	C82.694656,46.542816 79.858124,47.143169 77.071747,47.153214 
	C72.695305,47.168995 71.204247,49.314510 71.325615,53.322285 
	C71.411133,56.146114 71.192078,58.983299 71.360313,61.799511 
	C71.602966,65.861580 69.900681,67.440872 65.804474,67.410942 
	C61.787209,67.381577 60.588448,65.573837 60.713608,61.885624 
	C60.877037,57.069382 60.748531,52.243313 60.750214,47.421474 
	C60.753212,38.838573 60.754642,38.838573 70.001968,38.830582 
z"/>
<path fill="#102043" opacity="1.000000" stroke="none" 
	d="
M37.691483,28.747028 
	C46.001396,26.530443 47.312210,27.490437 47.321869,35.281754 
	C47.332382,43.762810 47.345463,52.243973 47.315754,60.724941 
	C47.293774,67.000488 44.234295,68.873627 38.441490,66.686447 
	C36.634102,66.004036 34.055180,65.899849 32.343636,66.671478 
	C22.712364,71.013657 13.567888,66.879066 12.089758,56.416233 
	C10.934906,48.241699 11.200969,39.864716 10.869854,31.576323 
	C10.726956,27.999346 13.155574,27.703516 15.878717,27.673498 
	C18.810326,27.641180 21.294191,28.027756 21.295649,31.791245 
	C21.297321,36.114822 21.199129,40.443016 21.368940,44.760372 
	C21.485989,47.736248 21.785345,50.736420 22.360664,53.655277 
	C23.180052,57.812431 25.901381,60.136345 30.177975,59.678123 
	C34.567673,59.207787 36.874138,56.656334 36.878292,51.957123 
	C36.885033,44.332359 37.193398,36.707867 37.691483,28.747028 
z"/>
<path fill="#112144" opacity="1.000000" stroke="none" 
	d="
M204.862061,16.484962 
	C202.511871,17.500225 199.989380,17.631191 198.264236,18.871330 
	C196.360947,20.239506 194.301315,22.460678 193.903534,24.605837 
	C193.281006,27.962933 196.602539,27.735310 198.793701,27.787729 
	C201.996857,27.864363 203.178741,29.335653 203.177902,32.435089 
	C203.177032,35.706600 201.256699,36.356491 198.641647,36.243752 
	C194.150436,36.050129 193.046280,38.596985 193.133957,42.522789 
	C193.267502,48.503407 193.120621,54.489727 193.181305,60.472729 
	C193.218155,64.104736 193.571716,67.406052 188.087860,67.430977 
	C182.406128,67.456810 182.609497,64.049736 182.654144,60.191002 
	C182.723373,54.208225 182.668564,48.223969 182.659668,42.240349 
	C182.655197,39.229122 182.143982,36.812866 178.437897,35.998028 
	C177.314316,35.750992 175.976395,33.380577 175.979630,31.985615 
	C175.982803,30.614761 177.354660,28.314550 178.494263,28.057926 
	C181.612488,27.355743 182.446121,25.426626 182.761185,22.775932 
	C184.083344,11.652371 193.990646,8.860595 202.331955,9.928971 
	C206.346695,10.443189 205.475220,13.441389 204.862061,16.484962 
z"/>
<path fill="#112044" opacity="1.000000" stroke="none" 
	d="
M253.674988,34.175179 
	C254.019562,28.084364 256.960999,25.633656 262.075165,28.184631 
	C265.711823,29.998604 268.068146,28.950586 271.114807,27.831856 
	C276.152130,25.982180 279.131378,28.209503 277.956726,33.051254 
	C277.608917,34.484959 275.597473,36.082520 274.030365,36.558746 
	C265.360596,39.193424 264.260803,40.481136 264.246887,49.547668 
	C264.240265,53.875080 264.119019,58.206688 264.270447,62.528660 
	C264.404236,66.347168 262.470978,67.377090 259.032349,67.363258 
	C255.669678,67.349731 253.620087,66.469513 253.657913,62.616882 
	C253.749390,53.297249 253.679184,43.976028 253.674988,34.175179 
z"/>
<path fill="#102044" opacity="1.000000" stroke="none" 
	d="
M144.835571,47.000618 
	C144.836029,42.511120 144.598389,38.501129 144.929993,34.538780 
	C145.116287,32.312790 145.722824,28.750895 147.049454,28.262833 
	C150.302948,27.065897 154.260193,26.687056 156.383270,30.631952 
	C158.780716,29.601818 160.999329,28.076258 163.355164,27.822021 
	C165.155838,27.627693 168.230164,28.559477 168.793152,29.843218 
	C169.891434,32.347599 169.787216,35.324760 166.029373,36.622665 
	C155.301941,40.327785 155.330917,40.408188 155.325562,51.707603 
	C155.323837,55.365112 155.229706,59.024960 155.330963,62.679493 
	C155.438690,66.566841 153.226990,67.331635 149.912903,67.362831 
	C146.409195,67.395790 144.656937,66.241905 144.797043,62.461082 
	C144.981598,57.480434 144.838058,52.487633 144.835571,47.000618 
z"/>
<path fill="#0EB24C" opacity="1.000000" stroke="none" 
	d="
M60.546249,76.839790 
	C63.420677,75.701935 66.189934,74.140831 68.745903,74.434723 
	C70.298119,74.613190 72.683159,77.711647 72.605110,79.401894 
	C72.501320,81.649666 70.826881,84.468636 68.946815,85.779755 
	C67.533295,86.765511 64.402100,86.414612 62.622826,85.507195 
	C59.265087,83.794785 59.270008,80.487312 60.546249,76.839790 
z"/>
<path fill="#F9F9FA" opacity="1.000000" stroke="none" 
	d="
M235.922089,46.225876 
	C235.947083,47.150158 235.977310,47.649864 235.951462,48.146652 
	C235.541473,56.028786 231.770935,60.691963 225.900497,60.587784 
	C220.241791,60.487358 216.229721,55.220547 216.339767,47.639969 
	C216.372833,45.362701 216.902985,43.022873 217.604797,40.840115 
	C218.924667,36.735134 221.973114,34.683842 226.262955,34.651749 
	C230.646103,34.618958 233.375671,37.127106 234.941772,40.937805 
	C235.557800,42.436787 235.598526,44.172203 235.922089,46.225876 
z"/>
<path fill="#F0F1F3" opacity="1.000000" stroke="none" 
	d="
M122.340012,43.600182 
	C121.103447,43.663609 120.210785,43.883270 119.452301,43.655720 
	C117.257362,42.997215 115.116386,42.158882 112.954224,41.391144 
	C114.158081,39.188545 114.886307,35.810009 116.686539,35.081875 
	C118.922211,34.177616 122.674339,34.589119 124.642853,36.003326 
	C127.957397,38.384525 126.740517,42.107197 122.340012,43.600182 
z"/>
</svg>